<?xml version="1.0" encoding="UTF-8" standalone="no"?>
<svg
   xmlns:dc="http://purl.org/dc/elements/1.1/"
   xmlns:cc="http://creativecommons.org/ns#"
   xmlns:rdf="http://www.w3.org/1999/02/22-rdf-syntax-ns#"
   xmlns:svg="http://www.w3.org/2000/svg"
   xmlns="http://www.w3.org/2000/svg"
   xmlns:sodipodi="http://sodipodi.sourceforge.net/DTD/sodipodi-0.dtd"
   xmlns:inkscape="http://www.inkscape.org/namespaces/inkscape"
   sodipodi:docname="Pikachu SVG File.svg"
   inkscape:version="1.0 (4035a4fb49, 2020-05-01)"
   id="svg1768"
   version="1.1"
   viewBox="0 0 210 297"
   height="297mm"
   width="210mm">
  <defs
     id="defs1762" />
  <sodipodi:namedview
     inkscape:window-maximized="0"
     inkscape:window-y="0"
     inkscape:window-x="26"
     inkscape:window-height="728"
     inkscape:window-width="1274"
     inkscape:snap-global="false"
     showgrid="false"
     inkscape:document-rotation="0"
     inkscape:current-layer="layer1"
     inkscape:document-units="mm"
     inkscape:cy="290.59384"
     inkscape:cx="422.07764"
     inkscape:zoom="0.7"
     inkscape:pageshadow="2"
     inkscape:pageopacity="0.0"
     borderopacity="1.0"
     bordercolor="#666666"
     pagecolor="#ffffff"
     id="base" />
  <metadata
     id="metadata1765">
    <rdf:RDF>
      <cc:Work
         rdf:about="">
        <dc:format>image/svg+xml</dc:format>
        <dc:type
           rdf:resource="http://purl.org/dc/dcmitype/StillImage" />
        <dc:title></dc:title>
      </cc:Work>
    </rdf:RDF>
  </metadata>
  <g
     id="layer1"
     inkscape:groupmode="layer"
     inkscape:label="Layer 1">
    <g
       transform="matrix(0.45735972,0,0,0.45735972,24.91995,6.5795449)"
       id="g2864">
      <path
         id="path2423"
         style="fill:#000000;fill-opacity:1;stroke-width:0.999999"
         d="m 323.75781,-38.398438 c -0.24495,-0.02624 -0.48142,-0.02611 -0.71289,0.0078 -0.27288,0.03855 -0.53922,0.127541 -0.80273,0.238281 -0.7177,0.139087 -1.37445,0.461858 -1.96485,0.996094 -2.24129,2.028359 -3.44381,5.671775 -4.57812,15.140625 -0.0113,0.08995 -0.0199,0.167609 -0.0312,0.261719 -0.32466,2.741064 -0.64514,5.884529 -0.98242,9.701172 -0.30426,3.4431488 -0.4522,15.5284195 -0.47461,30.421875 -0.0794,8.525933 -0.0462,17.71167 0.0918,27.330078 0.13682,19.027162 0.41794,37.595165 0.82813,46.748047 0.34091,7.605017 0.73798,15.154107 1.17187,22.580077 0.13418,2.70259 0.27518,5.19843 0.42383,7.41993 0.0703,1.05067 0.15797,2.1542 0.23242,3.21875 2.66741,41.08826 6.51071,76.16561 9.7754,86.93164 0.0151,0.0548 0.0219,0.0951 0.0332,0.14648 0.034,0.24491 0.0741,0.50194 0.0938,0.67383 -0.0877,0.61051 -0.94486,0.54087 -3.41406,-0.004 -17.6357,-3.89238 -57.00763,-3.84954 -91.28711,0.0996 -25.1,2.89138 -62.59824,12.15344 -75.34961,18.61133 l -1.13282,0.57422 c -1.14674,0.44356 -2.14255,0.7983 -2.86523,0.99219 -0.8863,0.17612 -1.54424,0.18936 -2.08789,0.0703 l -2.54297,-1.68164 c -6.17015,-4.08321 -18.45934,-10.76078 -31.43359,-17.29297 -1.45338,-0.75402 -2.88398,-1.49216 -4.15821,-2.13086 -4.45179,-2.2314 -9.0903,-4.43687 -13.874996,-6.60937 -4.334098,-2.0137 -8.519393,-3.90773 -12.1875,-5.45704 -55.658531,-23.50987 -123.410086,-40.55293 -179.72461,-45.21093 -6.324434,-0.52301 -14.096374,-0.77443 -21.738284,-0.82032 -1.97862,-0.059 -3.81827,-0.0933 -5.40234,-0.0918 -2.87951,0.003 -5.60216,0.0931 -8.2168,0.22461 -1.75585,0.0514 -3.42147,0.12004 -4.96484,0.21679 -6.45955,0.32882 -11.31519,0.86394 -12.72461,1.57422 -0.95305,0.48012 -1.73203,0.94593 -2.36328,1.41992 -1.4897,0.87043 -2.23047,1.91363 -2.23047,3.13672 0,0.515 0.18746,1.172 0.52539,1.9375 0.20523,0.6649 0.51769,1.39358 0.93359,2.20508 0.96817,1.88882 4.25094,5.69599 8.45899,10.06641 3.33441,3.56027 7.25634,7.37857 11.43359,11.08007 3.79181,3.454 7.49789,6.63127 10.45117,8.81836 9.4907,7.02879 28.963491,20.30079 29.78516,20.30079 0.332598,0 1.964755,0.96874 3.626953,2.15234 3.610054,2.57057 11.505533,7.14459 21.445313,12.57422 2.539615,1.5374 8.35611,4.61884 15.550781,8.31836 21.391182,11.22761 46.463904,23.63582 61.289062,30.0039 4.726451,2.03021 9.736518,4.12222 14.806641,6.2168 2.881739,1.23772 6.636703,2.77289 11.148438,4.55078 20.963639,8.45061 41.407524,16.13512 49.882812,18.59571 3.168567,0.91988 4.625419,1.50596 5.101562,2.20117 -0.06123,0.57921 -0.21054,1.47102 -0.443359,2.62695 -4.090053,11.88627 -8.937244,43.34064 -8.978515,59.00977 -0.0023,0.86997 -0.03031,1.6916 -0.07227,2.45703 -0.0446,0.4368 -0.07832,0.7149 -0.119141,1.09179 -0.280063,1.67789 -0.602452,2.6726 -0.978515,3.03321 -0.607635,-0.16441 -1.737575,-0.57839 -3.197266,-1.15821 -1.848869,-0.78659 -4.246549,-1.85215 -6.787109,-3.03125 -5.163855,-2.39682 -10.507681,-4.70954 -11.875,-5.13867 -1.367282,-0.42897 -4.736344,-1.79911 -7.486329,-3.04492 -6.373567,-2.88718 -17.546771,-7.07693 -34,-12.75 -45.294802,-15.61791 -97.542918,-27.78461 -142.499998,-33.18359 -5.21011,-0.6257 -13.35593,-1.29286 -21.85351,-1.87305 -6.59105,-0.52951 -13.09046,-0.93354 -19.46289,-1.18945 -3.00696,-0.12057 -5.3737,-0.19148 -7.45508,-0.22852 -4.71062,-0.14135 -8.03063,-0.1397 -8.61914,0.0859 -0.70572,0.27061 -1.15943,0.81727 -1.36719,1.72265 -0.17839,0.41791 -0.24219,0.91487 -0.24219,1.50977 0,0.0113 0.002,0.034 0.002,0.0449 -1.9e-4,0.0151 -0.002,0.0302 -0.002,0.0449 0,0.4255 0.14363,1.17515 0.34961,2.06836 0.46534,2.74107 1.61684,6.69443 3.52539,12.33594 7.8672,23.25479 20.30909,53.46129 33.34571,81.91992 v 0.002 c 0.48521,1.20018 1.80946,4.04522 3.52343,7.63671 10.94778,23.4364 22.06551,45.10177 31.04102,59.89454 3.2228,5.31163 4.90081,8.42804 6.71094,10.21875 0.39745,0.5376 0.70281,0.90207 0.86132,1 0.0457,0.0265 0.24266,0.0572 0.50586,0.0859 2.721339,1.64512 6.465492,1.14626 15.636718,0.73047 1.449941,-0.0658 3.64975,-0.10408 6.324219,-0.12109 5.261065,0.0745 10.941113,0.13874 17.121094,0.17578 5.519887,0.034 10.832563,0.0958 16.046875,0.16992 20.767296,0.39821 42.985003,1.06404 50.5078125,1.67383 2.1999495,0.17839 8.3874935,0.64626 13.7499995,1.03906 1.268675,0.093 2.468167,0.1983 3.582032,0.31055 3.216415,0.4159 5.289233,0.85558 5.925781,1.30859 -0.01512,0.37758 -0.123017,1.05354 -0.296875,1.91992 -0.275528,0.99481 -0.624899,2.20049 -1.021484,3.48829 -8.484435,27.55298 -27.4394535,93.81853 -27.4394535,95.92773 0,0.19238 0.034031,0.37873 0.082031,0.56445 -0.026457,0.14022 -0.082031,0.37795 -0.082031,0.42969 0,0.25625 0.3884645,0.61391 1.15820312,1.07422 1.96913388,1.65521 6.88090298,3.6497 17.84179638,7.54492 18.212183,6.47218 41.199539,15.04519 46.689454,17.38086 0.183307,0.10129 0.388023,0.20415 0.558593,0.30469 1.220599,0.7189 2.094872,1.55594 2.964844,3.11133 0.309165,0.61009 0.58474,1.25867 0.783203,1.90429 0.635188,2.06669 2.073159,6.12269 3.197266,9.01367 0.126992,0.32693 0.227907,0.60406 0.33789,0.89844 0.688139,2.29123 1.041495,3.83473 1.109376,5.01953 -0.06387,0.7208 -0.261531,1.41038 -0.59961,2.22657 -1.057927,2.5542 -1.850734,2.9706 -6.867187,3.5957 -3.128996,0.38982 -6.449552,1.25837 -9.679688,2.43555 -2.074696,0.67453 -4.072051,1.54073 -6.001953,2.60547 -5.382501,2.73587 -9.885639,6.18096 -11.839844,9.47656 -1.422953,1.2243 -2.609945,2.08485 -3.224609,2.28906 -0.809008,-0.87931 -2.093183,-2.55264 -3.427735,-4.52344 -1.590726,-2.34909 -5.427231,-6.86467 -9.232421,-10.95117 -0.505626,-0.54811 -1.011058,-1.08325 -1.515625,-1.60547 -0.286867,-0.29896 -0.583433,-0.62959 -0.865235,-0.91797 -6.977008,-7.1427 -8.505042,-8.26131 -11.4492185,-8.29687 -0.015118,-4.2e-4 -0.038372,-0.008 -0.052734,-0.008 -0.015118,0 -0.034088,0.002 -0.048828,0.002 -0.015118,-1.1e-4 -0.026339,-0.002 -0.042969,-0.002 -0.041575,0 -0.079897,0.004 -0.1210937,0.004 -0.015118,-3.8e-4 -0.030182,-0.004 -0.044922,-0.004 -0.069165,0 -0.1378659,0.0118 -0.2070312,0.0156 -4.04897,0.13947 -6.3104118,2.544 -7.12890628,7.58789 -0.29404723,1.81092 -1.10820717,3.83368 -1.92968752,4.9082 -0.2827086,0.21657 -0.560371,0.52022 -0.8300781,0.89844 -1.8545765,2.0609 -2.9490117,6.26107 -3.3203125,12.02149 -0.1235906,1.33209 -0.2109375,2.6799 -0.2109375,4.02148 0,1.8014 0.086277,3.76872 0.2128906,5.8125 0.6191622,12.86959 3.4746803,29.7333 8.3828125,47.23633 1.3880692,4.94997 3.1549844,11.31663 3.9257813,14.14844 2.2473826,8.256 6.2804029,19.38154 10.8652339,30.48632 1.289537,3.60303 3.791932,9.28597 6.771485,15.47657 3.61954,7.8088 7.224258,14.8554 10.298828,19.88867 9.234481,15.1172 16.71655,23.36068 24.210937,26.67578 5.079421,2.24689 8.282626,1.87366 11.496094,-1.33984 l 2.111328,-2.11133 6.613281,2.1582 c 0.155339,0.0507 0.357163,0.10485 0.519532,0.15625 2.364623,0.9391 4.862952,1.6379 7.988281,2.14258 1.518047,0.34847 2.968146,0.66076 4.103515,0.84766 7.649953,1.25971 42.349472,1.23577 58.000002,-0.0391 6.6,-0.53767 17.47948,-1.27306 24.17578,-1.63476 l 12.17578,-0.65625 -0.56054,4.17187 c -0.31332,2.3356 -0.0589,4.16546 0.68945,5.49219 0.84431,1.64081 2.43486,2.47774 4.71875,2.50586 2.21526,0.0869 5.03808,-0.56128 8.41406,-2.01367 l 4.98243,-2.14258 3.26171,3.55859 c 0.58436,0.85248 1.21162,1.49361 1.88672,1.94141 1.07936,1.0475 1.96186,1.78711 2.20703,1.78711 1.23444,0 5.01249,-2.21543 7.25,-4.25195 l 1.13282,-1.03125 c 0.45774,-0.29783 0.80989,-0.46888 1.10742,-0.52149 0.19389,0.0265 0.38764,0.0839 0.58398,0.17383 l 2.53516,2.53516 c 3.67797,3.67801 4.8821,3.52654 12.43945,-1.56055 l 4.96094,-3.33985 0.66406,0.72657 2.70899,3.25781 c 4.93882,5.94248 7.99786,5.60476 15.3789,-1.69922 l 4.40625,-4.36133 c 0.7553,-0.5735 1.39026,-0.96844 1.91407,-1.19336 l 4.20898,1.19336 c 2.40132,0.68009 4.1893,1.14173 5.69336,1.42383 l 3.48047,1.02539 2.41406,-1.24414 c 1.06628,-0.3583 2.21571,-0.89595 3.6582,-1.62695 l 5.28125,-2.67578 5.61524,5.48047 c 0.14135,0.13795 0.27287,0.2551 0.41211,0.38867 1.18889,1.20329 2.33923,2.20383 3.44531,3.03125 6.0562,4.77558 9.60972,4.16608 11.39453,-1.79102 0.18482,-0.61731 0.34238,-1.06451 0.51367,-1.58594 0.41069,-1.16299 0.80374,-2.03309 1.03516,-2.27929 0.3069,0.10847 3.29131,1.79499 6.9375,3.92578 3.76482,2.19991 7.49279,4 8.2832,4 1.9304,0 5.09375,-2.9573 5.09375,-4.76172 0,-0.008 0.002,-0.0159 0.002,-0.0234 0.43158,-0.50018 0.89168,-0.79896 1.30078,-0.83203 0.14589,0.0423 0.27476,0.0661 0.44726,0.13867 0.96253,0.4057 4.13016,0.96146 7.03906,1.23438 5.17818,0.48608 5.31305,0.43075 6.46876,-2.63086 0.40931,-1.0845 0.72368,-1.79147 1.1914,-2.25586 0.0423,-0.034 0.0894,-0.0573 0.13281,-0.0879 0.56383,-0.31446 1.3724,-0.54183 2.52149,-0.71875 0.14551,-0.0113 0.27098,-0.0294 0.42969,-0.0332 0.004,-1.2e-4 0.006,1.8e-4 0.0137,0 0.3823,-0.0151 0.80174,-0.0234 1.26953,-0.0234 0.0113,0 0.0199,-0.002 0.0312,-0.002 0.18709,-9.7e-4 0.33974,-0.004 0.54297,-0.004 0.34091,0 0.6444,-0.0302 0.96679,-0.0449 0.15156,-0.008 0.31708,-0.0102 0.4629,-0.0215 4.58157,-0.32353 7.17823,-2.20897 7.18164,-5.33789 10e-4,-1.29649 0.11033,-1.7905 6.89843,-2 l 8.38477,0.2207 c 8.91938,0.2366 19.95938,-0.0226 31.61719,-0.66015 15.09021,-0.42818 25.92116,-1.50218 45.09765,-4.09766 l 11.57032,-1.56445 1.9082,-0.24219 0.19922,0.17383 2.32226,2.55078 c 2.42922,2.66642 5.10573,4.27673 8.03321,4.8457 0.0408,0.008 0.0838,0.01 0.125,0.0176 2.76328,0.50793 5.74937,0.0964 8.9707,-1.25195 3.52717,-1.47651 7.98892,-5.59409 12.61914,-11.30469 2.83619,-3.4032 5.61869,-7.32952 8.31641,-11.72851 3.36359,-5.36141 6.56962,-11.2628 9.3125,-17.30079 14.21809,-31.29818 23.42751,-71.54333 24.79101,-100.03124 0.40789,-4.99881 0.57073,-8.79448 0.31641,-9.62696 -0.0541,-0.17688 -0.12533,-0.64878 -0.20508,-1.24609 -0.37153,-11.35291 -2.44432,-19.69539 -6.50391,-23.03906 -1.09311,-0.90033 -2.66891,-3.01159 -3.79101,-4.98829 -0.068,-0.97651 -0.72633,-2.02686 -1.66992,-2.94336 -0.87999,-1.28657 -1.73948,-1.78921 -3.25,-2.0371 -0.4187,-0.14363 -0.83916,-0.24592 -1.25196,-0.29883 -0.0631,-0.008 -0.12476,-0.01 -0.1875,-0.0176 -0.0994,-0.0113 -0.20043,-0.0273 -0.29492,-0.0273 -0.0113,0 -0.0301,0.004 -0.043,0.008 -0.0302,-6.1e-4 -0.06,-0.008 -0.0898,-0.008 -0.4139,0 -0.8364,0.0638 -1.26367,0.17382 -1.74513,0.17122 -2.89692,1.01995 -5.03711,3.28907 -0.63001,0.66788 -1.28442,1.26169 -1.9043,1.7539 -0.53533,0.38899 -1.05834,0.75125 -1.52734,1.02735 -0.52558,0.27515 -0.95377,0.3976 -1.20118,0.30273 -1.08139,-0.41499 -2.55375,0.36741 -4.28515,2.16016 -1.15869,1.0913 -2.42017,2.73688 -3.83594,5.00195 -1.75102,2.68203 -3.633,6.03283 -5.57226,9.98633 -2.66212,5.4271 -4.65555,9.40403 -5.43946,10.89453 -0.29329,0.49058 -0.57398,0.95597 -0.73828,1.16211 -0.54009,-0.26003 -3.29984,-2.78573 -6.52344,-5.99024 -11.3238,-11.2569 -22.909,-19.16213 -30.88672,-21.07812 -1.79818,-0.43193 -3.24159,-2.11693 -5.05078,-5.89453 -1.39309,-2.9091 -5.9474,-12.03904 -10.12109,-20.28906 -14.15169,-27.97319 -22.31478,-53.3254 -24.30859,-75.5 -0.32164,-3.57498 -0.81868,-8.41591 -1.10547,-10.75782 -0.11188,-0.91362 -0.17584,-1.62439 -0.1543,-2.2832 0.14476,-0.94458 0.40017,-1.76053 0.75586,-2.53711 0.93819,-1.5854 2.88996,-3.66092 6.70898,-7.67969 4.30768,-4.53312 9.38718,-10.26716 11.28711,-12.74218 1.8999,-2.47499 3.70924,-4.72493 4.01953,-5 1.89158,-1.67543 6.59449,-9.18065 11.20899,-17.36915 2.34221,-3.93708 4.40494,-7.79358 6.16601,-11.50976 1.94812,-3.86018 3.5354,-7.28871 4.37891,-9.62109 2.47079,-6.83082 4.34893,-18.91063 4.14453,-26.65235 -0.3843,-14.53818 -2.66113,-24.07445 -11.90234,-49.84765 -8.97559,-25.03261 -11.54095,-34.1045 -17.11133,-60.5 -4.163,-19.7263 -7.1792,-29.6679 -13.65039,-45 l -4.84766,-11.48438 c -0.14664,-1.4482 -0.25013,-3.29239 -0.3125,-5.67969 l -0.0273,-1.41797 c -0.0382,-1.99989 -0.0625,-4.20254 -0.0625,-6.92187 0,-4.94219 -0.10387,-10.38683 -0.28906,-16.01953 -0.11792,-5.27089 -0.27816,-10.13164 -0.50391,-14.81055 C 416.91424,188.01993 412.59221,158.8661 403.1994,120.30423 389.64639,64.662925 363.6276,6.2714407 338.22479,-25.510229 c -5.0634,-6.334866 -9.03757,-10.229691 -12.16211,-11.851562 -0.91093,-0.624745 -1.65038,-0.961711 -2.30273,-1.03711 z M 97.984375,508.10742 106.06641,524.26953 90.914062,585.88867 58.587891,569.72656 Z"
         transform="scale(0.26458333)" />
      <path
         style="fill:#ffd73e;fill-opacity:1;stroke-width:0.999999"
         d="m 212.1875,839.34961 c -0.22582,0.0646 -0.41991,0.0977 -0.57422,0.0977 4.9e-4,0 0.001,0.002 0.002,0.002 0.15431,0 0.34645,-0.0351 0.57227,-0.0996 z"
         transform="scale(0.26458333)"
         id="path2700" />
      <path
         style="fill:#ffd73e;fill-opacity:1;stroke-width:0.999999"
         d="m 254.5332,838.56445 c -0.66068,0.37714 -1.28452,0.64893 -1.88281,0.81641 0.5983,-0.16748 1.22213,-0.43927 1.88281,-0.81641 z"
         transform="scale(0.26458333)"
         id="path2698" />
      <path
         style="fill:#ffd73e;fill-opacity:1;stroke-width:0.999999"
         d="m 231.16992,838.14844 c -0.83412,0.39568 -1.54209,0.63069 -2.18164,0.71094 0.63955,-0.0802 1.34753,-0.31526 2.18164,-0.71094 z"
         transform="scale(0.26458333)"
         id="path2696" />
      <path
         style="fill:#ffd73e;fill-opacity:1;stroke-width:0.999999"
         d="m 226.08984,838.00977 c 0.38258,0.27538 0.75273,0.48769 1.12696,0.63476 -0.37423,-0.14707 -0.74438,-0.35938 -1.12696,-0.63476 z"
         transform="scale(0.26458333)"
         id="path2694" />
      <path
         style="fill:#ffd73e;fill-opacity:1;stroke-width:0.999999"
         d="m 246.77344,837.36914 c 0.57072,0.54522 1.12355,0.991 1.67187,1.33594 -0.54832,-0.34494 -1.10115,-0.79072 -1.67187,-1.33594 z"
         transform="scale(0.26458333)"
         id="path2692" />
      <path
         style="fill:#ffd73e;fill-opacity:1;stroke-width:0.999999"
         d="m 328.64062,837.36719 c 0.18494,0.0535 0.33089,0.082 0.42969,0.082 0.12065,0 0.2458,-0.0131 0.375,-0.0352 -0.1292,0.0221 -0.2563,0.0332 -0.37695,0.0332 -0.0988,0 -0.2428,-0.0266 -0.42774,-0.0801 z"
         transform="scale(0.26458333)"
         id="path2690" />
      <path
         style="fill:#ffd73e;fill-opacity:1;stroke-width:0.999999"
         d="m 331.5293,836.41797 c -0.55922,0.41 -1.14502,0.73161 -1.6875,0.90039 0.54248,-0.16878 1.12827,-0.49039 1.6875,-0.90039 z"
         transform="scale(0.26458333)"
         id="path2688" />
      <path
         style="fill:#ffd73e;fill-opacity:1;stroke-width:0.999999"
         d="m 192.63672,836.24414 c -0.62891,0.0712 -1.22158,0.094 -1.77539,0.0723 -0.28549,-0.004 -0.55855,-0.0181 -0.82227,-0.0469 0.26372,0.0288 0.53873,0.0453 0.82422,0.0488 0.55381,0.0217 1.14453,-0.003 1.77344,-0.0742 z"
         transform="scale(0.26458333)"
         id="path2686" />
      <path
         style="fill:#ffd73e;fill-opacity:1;stroke-width:0.999999"
         d="m 195.71484,835.60156 c -0.73836,0.21474 -1.4416,0.38146 -2.10742,0.5 0.66582,-0.11854 1.36906,-0.28526 2.10742,-0.5 z"
         transform="scale(0.26458333)"
         id="path2684" />
      <path
         style="fill:#ffd73e;fill-opacity:1;stroke-width:0.999999"
         d="m 198.03516,834.81055 c -0.80922,0.31309 -1.58195,0.57627 -2.32032,0.79101 0.73784,-0.21458 1.51174,-0.47822 2.32032,-0.79101 z"
         transform="scale(0.26458333)"
         id="path2682" />
      <path
         style="fill:#ffd73e;fill-opacity:1;stroke-width:0.999999"
         d="m 220.61133,833.8125 c -0.18245,0.0866 -0.38637,0.20265 -0.61524,0.35156 l -1.13281,1.03125 c -1.11876,1.01826 -2.62149,2.08221 -4,2.89063 1.37851,-0.80842 2.8832,-1.87041 4.00195,-2.88867 l 1.13282,-1.03125 c 0.22887,-0.14892 0.43083,-0.26695 0.61328,-0.35352 z"
         transform="scale(0.26458333)"
         id="path2680" />
      <path
         style="fill:#ffd73e;fill-opacity:1;stroke-width:0.999999"
         d="m 221.10352,833.64258 c -0.14877,0.0263 -0.30974,0.0833 -0.49219,0.16992 0.18245,-0.0866 0.34538,-0.14164 0.49414,-0.16797 0.19389,0.0265 0.38766,0.0839 0.58398,0.17383 l -0.002,-0.002 c -0.19631,-0.09 -0.39009,-0.14738 -0.58398,-0.17383 z"
         transform="scale(0.26458333)"
         id="path2678" />
      <path
         style="fill:#ffd73e;fill-opacity:1;stroke-width:0.999999"
         d="m 347.35938,833.32617 c -0.36113,0.0861 -0.80584,0.11501 -1.375,0.10352 0.56824,0.0115 1.01418,-0.0177 1.375,-0.10352 z"
         transform="scale(0.26458333)"
         id="path2676" />
      <path
         style="fill:#ffd73e;fill-opacity:1;stroke-width:0.999999"
         d="m 347.98242,833.07227 c -0.17743,0.11256 -0.38117,0.19649 -0.62109,0.2539 0.24075,-0.0574 0.44319,-0.14104 0.62109,-0.2539 z"
         transform="scale(0.26458333)"
         id="path2674" />
      <path
         style="fill:#ffd73e;fill-opacity:1;stroke-width:0.999999"
         d="m 348.45117,832.63867 c -0.0694,0.089 -0.14302,0.17009 -0.2207,0.24219 0.0781,-0.0724 0.15099,-0.15279 0.2207,-0.24219 z"
         transform="scale(0.26458333)"
         id="path2672" />
      <path
         style="fill:#ffd73e;fill-opacity:1;stroke-width:0.999999"
         d="m 334.49219,832.32812 c -0.11022,0.0989 -0.22024,0.21091 -0.32813,0.33594 -7e-5,0.008 -0.002,0.0139 -0.002,0.0215 0,0.11277 -0.0115,0.23078 -0.0352,0.35156 0.0236,-0.12078 0.0371,-0.23684 0.0371,-0.34961 0,-0.008 0.002,-0.0159 0.002,-0.0234 0.10788,-0.12503 0.21595,-0.23708 0.32617,-0.33594 z"
         transform="scale(0.26458333)"
         id="path2670" />
      <path
         style="fill:#ffd73e;fill-opacity:1;stroke-width:0.999999"
         d="m 337.00977,832.29688 c 1.38397,0.32854 3.60173,0.67479 5.71679,0.88281 -2.11559,-0.20799 -4.33244,-0.55418 -5.71679,-0.88281 z"
         transform="scale(0.26458333)"
         id="path2668" />
      <path
         style="fill:#ffd73e;fill-opacity:1;stroke-width:0.999999"
         d="m 204.25781,832.16016 -4.98242,2.14257 c -0.42143,0.1813 -0.83419,0.35145 -1.23828,0.50782 0.40461,-0.15655 0.81823,-0.32432 1.24023,-0.50586 l 4.98243,-2.14258 z"
         transform="scale(0.26458333)"
         id="path2666" />
      <path
         style="fill:#ffd73e;fill-opacity:1;stroke-width:0.999999"
         d="m 241.62305,831.45117 -4.96094,3.33985 c -0.94467,0.63588 -1.78936,1.19588 -2.55273,1.67968 0.76337,-0.4838 1.61001,-1.04184 2.55468,-1.67773 l 4.96094,-3.33985 z"
         transform="scale(0.26458333)"
         id="path2664" />
      <path
         style="fill:#ffd73e;fill-opacity:1;stroke-width:0.999999"
         d="m 311.94336,834.44141 c -0.37664,0.99158 -0.8171,1.79498 -1.32617,2.41015 0.50866,-0.61503 0.94976,-1.41919 1.32617,-2.41015 z"
         transform="scale(0.26458333)"
         id="path2662" />
      <path
         style="fill:#ffd73e;fill-opacity:1;stroke-width:0.999999"
         d="m 313.39844,830.31836 c -0.17851,0.39368 -0.38056,0.90098 -0.58594,1.48242 -0.17125,0.52146 -0.32885,0.96863 -0.51367,1.58594 -0.11155,0.37232 -0.22992,0.72416 -0.35547,1.05469 0.12555,-0.33054 0.24587,-0.68042 0.35742,-1.05274 0.18493,-0.61727 0.34246,-1.06447 0.51367,-1.58594 0.20538,-0.58144 0.40547,-1.09069 0.58399,-1.48437 z"
         transform="scale(0.26458333)"
         id="path2660" />
      <path
         style="fill:#ffd73e;fill-opacity:1;stroke-width:0.999999"
         d="m 313.84766,829.52148 c -0.0579,0.0616 -0.12537,0.1625 -0.20118,0.29688 0.0758,-0.13437 0.14527,-0.23337 0.20313,-0.29492 -1.6e-4,-6e-5 -0.002,-0.002 -0.002,-0.002 z"
         transform="scale(0.26458333)"
         id="path2658" />
      <path
         style="fill:#ffd73e;fill-opacity:1;stroke-width:0.999999"
         d="m 349.99414,829.21289 c -0.18823,0.37036 -0.36956,0.8191 -0.57422,1.36133 -0.14446,0.3827 -0.27208,0.71815 -0.39648,1.01172 0.1244,-0.29357 0.25398,-0.62902 0.39844,-1.01172 0.20466,-0.54223 0.38404,-0.99097 0.57226,-1.36133 z"
         transform="scale(0.26458333)"
         id="path2656" />
      <path
         style="fill:#ffd73e;fill-opacity:1;stroke-width:0.999999"
         d="m 350.61133,828.31836 c -0.23384,0.23219 -0.42896,0.52417 -0.61719,0.89453 0.18823,-0.37036 0.3853,-0.66234 0.61914,-0.89453 -4.3e-4,3.5e-4 -0.002,-3.5e-4 -0.002,0 z"
         transform="scale(0.26458333)"
         id="path2654" />
      <path
         style="fill:#ffd73e;fill-opacity:1;stroke-width:0.999999"
         d="m 353.26562,827.51172 c -0.86184,0.13266 -1.53167,0.29313 -2.05078,0.49805 0.51868,-0.20474 1.18998,-0.36545 2.05078,-0.49805 z"
         transform="scale(0.26458333)"
         id="path2652" />
      <path
         style="fill:#ffd73e;fill-opacity:1;stroke-width:0.999999"
         d="m 354.95703,827.45508 c -0.45741,2.7e-4 -0.87081,0.007 -1.24609,0.0215 -0.008,1.5e-4 -0.0118,-1.9e-4 -0.0156,0 -0.15798,0.008 -0.28306,0.0238 -0.42773,0.0352 0.14562,-0.0113 0.2711,-0.0294 0.42969,-0.0332 0.005,-1.6e-4 0.007,1.8e-4 0.0117,0 0.3759,-0.0149 0.78977,-0.0232 1.24805,-0.0234 z"
         transform="scale(0.26458333)"
         id="path2650" />
      <path
         style="fill:#ffd73e;fill-opacity:1;stroke-width:0.999999"
         d="m 358.60742,827.1875 c -0.50949,0.0886 -1.05229,0.15292 -1.625,0.19336 -0.14516,0.0113 -0.3099,0.0159 -0.46094,0.0234 0.15149,-0.008 0.31718,-0.0102 0.4629,-0.0215 0.5727,-0.0404 1.11356,-0.10668 1.62304,-0.19531 z"
         transform="scale(0.26458333)"
         id="path2648" />
      <path
         style="fill:#ffd73e;fill-opacity:1;stroke-width:0.999999"
         d="m 259.04102,835.02539 c -0.85813,0.80448 -1.65506,1.50038 -2.40235,2.08984 0.74729,-0.58946 1.54422,-1.28536 2.40235,-2.08984 z"
         transform="scale(0.26458333)"
         id="path2646" />
      <path
         style="fill:#ffd73e;fill-opacity:1;stroke-width:0.999999"
         d="m 265.82617,828.64844 c -0.31863,0.19854 -0.66727,0.43981 -1.04492,0.72656 l -4.40625,4.36133 c -0.46131,0.45649 -0.90492,0.88682 -1.33398,1.28906 0.42906,-0.40224 0.87462,-0.83061 1.33593,-1.28711 l 4.40625,-4.36133 c 0.37764,-0.28675 0.72434,-0.52997 1.04297,-0.72851 z"
         transform="scale(0.26458333)"
         id="path2644" />
      <path
         style="fill:#ffd73e;fill-opacity:1;stroke-width:0.999999"
         d="m 291.43164,826.27734 -5.28125,2.67578 c -1.44261,0.731 -2.592,1.26866 -3.6582,1.62696 l -2.41407,1.24414 -3.48046,-1.02539 c -1.50403,-0.28214 -3.29204,-0.74363 -5.69336,-1.42383 l -4.20899,-1.19336 c -0.26188,0.11242 -0.55051,0.26825 -0.86914,0.4668 0.31864,-0.19855 0.60922,-0.35242 0.8711,-0.46485 l 4.20898,1.19336 c 2.40134,0.6802 4.18931,1.14169 5.69336,1.42383 l 3.48047,1.02539 2.41406,-1.24414 c 1.06623,-0.3583 2.21561,-0.89595 3.6582,-1.62695 l 5.28125,-2.67578 z"
         transform="scale(0.26458333)"
         id="path2642" />
      <path
         style="fill:#ffd73e;fill-opacity:1;stroke-width:0.999999"
         d="m 362.72266,825.41016 c -0.40426,0.37123 -0.89121,0.69293 -1.45508,0.96484 0.56387,-0.27191 1.05082,-0.59361 1.45508,-0.96484 z"
         transform="scale(0.26458333)"
         id="path2640" />
      <path
         style="fill:#ffd73e;fill-opacity:1;stroke-width:0.999999"
         d="m 62.318359,825.81445 c 0.532403,0.11539 1.042964,0.18935 1.535157,0.22071 -0.492194,-0.0314 -1.002753,-0.10532 -1.535157,-0.22071 z"
         transform="scale(0.26458333)"
         id="path2638" />
      <path
         style="fill:#ffd73e;fill-opacity:1;stroke-width:0.999999"
         d="m 60.853516,825.4082 c 0.505897,0.16636 0.995571,0.30455 1.464843,0.40625 -0.468809,-0.1016 -0.959484,-0.24012 -1.464843,-0.40625 z"
         transform="scale(0.26458333)"
         id="path2636" />
      <path
         style="fill:#ffd73e;fill-opacity:1;stroke-width:0.999999"
         d="m 93.402344,826.69922 c 1.356383,0.13742 3.09167,0.25412 5.113281,0.35156 -2.021612,-0.0974 -3.756896,-0.21414 -5.113281,-0.35156 z"
         transform="scale(0.26458333)"
         id="path2634" />
      <path
         style="fill:#ffd73e;fill-opacity:1;stroke-width:0.999999"
         d="m 85.740234,825.29102 c 0.588738,0.11929 1.183715,0.23703 1.820313,0.33984 1.518024,0.34885 2.968142,0.66068 4.103515,0.84766 0.478122,0.0787 1.06009,0.15199 1.738282,0.2207 -0.678193,-0.0687 -1.262113,-0.14393 -1.740235,-0.22266 -1.13537,-0.18693 -2.585506,-0.49918 -4.103515,-0.84765 -0.635915,-0.10271 -1.230207,-0.21874 -1.81836,-0.33789 z"
         transform="scale(0.26458333)"
         id="path2632" />
      <path
         style="fill:#ffd73e;fill-opacity:1;stroke-width:0.999999"
         d="m 161.71484,825.55469 c -4.3819,0.29627 -8.75273,0.61395 -12.05273,0.88281 -1.95578,0.15932 -4.20916,0.29974 -6.66992,0.41992 2.46156,-0.1202 4.71556,-0.25859 6.67187,-0.41797 3.3,-0.26887 7.66887,-0.58849 12.05078,-0.88476 z"
         transform="scale(0.26458333)"
         id="path2630" />
      <path
         style="fill:#ffd73e;fill-opacity:1;stroke-width:0.999999"
         d="m 186.01367,824.14648 -12.17578,0.65625 c -3.34813,0.18085 -7.74114,0.45569 -12.12305,0.75196 4.38192,-0.29627 8.77687,-0.56915 12.125,-0.75 l 12.17383,-0.65625 z"
         transform="scale(0.26458333)"
         id="path2628" />
      <path
         style="fill:#ffd73e;fill-opacity:1;stroke-width:0.999999"
         d="m 56.017578,823.14648 c 0.939074,0.57172 1.876488,1.0624 2.8125,1.47657 -0.936794,-0.41439 -1.872642,-0.90437 -2.8125,-1.47657 z"
         transform="scale(0.26458333)"
         id="path2626" />
      <path
         style="fill:#ffd73e;fill-opacity:1;stroke-width:0.999999"
         d="m 364.18359,821.59375 c -0.0164,0.13799 -0.0194,0.28716 -0.0195,0.44922 -2.1e-4,0.19555 -0.009,0.3865 -0.0293,0.57226 0.0203,-0.18576 0.031,-0.37475 0.0312,-0.57031 1.2e-4,-0.16206 10e-4,-0.31317 0.0176,-0.45117 z"
         transform="scale(0.26458333)"
         id="path2624" />
      <path
         style="fill:#ffd73e;fill-opacity:1;stroke-width:0.999999"
         d="m 66.617188,825.71289 c -0.433882,0.13928 -0.878538,0.23553 -1.337891,0.28906 0.459352,-0.0535 0.904009,-0.14978 1.337891,-0.28906 z"
         transform="scale(0.26458333)"
         id="path2622" />
      <path
         style="fill:#ffd73e;fill-opacity:1;stroke-width:0.999999"
         d="m 69.724609,823.85352 c -1.00611,0.89354 -2.022717,1.51117 -3.107421,1.85937 1.084703,-0.3482 2.101309,-0.96583 3.107421,-1.85937 z"
         transform="scale(0.26458333)"
         id="path2620" />
      <path
         style="fill:#ffd73e;fill-opacity:1;stroke-width:0.999999"
         d="m 72.4375,821.17188 -2.111328,2.11132 c -0.200842,0.20085 -0.400341,0.39161 -0.601563,0.57032 0.201223,-0.17871 0.402674,-0.36752 0.603516,-0.56836 l 2.111328,-2.11133 6.613281,2.1582 c 0.155301,0.0507 0.357129,0.10485 0.519532,0.15625 -7.7e-4,-3e-4 -0.0012,-0.002 -0.002,-0.002 -0.162368,-0.0514 -0.364192,-0.10561 -0.519531,-0.15625 z"
         transform="scale(0.26458333)"
         id="path2618" />
      <path
         style="fill:#ffd73e;fill-opacity:1;stroke-width:0.999999"
         d="m 480.32227,821.28906 c 1.38168,0.25395 2.8179,0.27825 4.3125,0.0703 -1.4946,0.20793 -2.93082,0.18363 -4.3125,-0.0703 z"
         transform="scale(0.26458333)"
         id="path2616" />
      <path
         style="fill:#ffd73e;fill-opacity:1;stroke-width:0.999999"
         d="m 479.10938,821.00781 c 0.3581,0.10369 0.72195,0.19255 1.08789,0.26367 0.0408,0.008 0.0838,0.01 0.125,0.0176 -0.0412,-0.008 -0.0861,-0.012 -0.12696,-0.0195 -0.36594,-0.0711 -0.72783,-0.15803 -1.08593,-0.26172 z"
         transform="scale(0.26458333)"
         id="path2614" />
      <path
         style="fill:#ffd73e;fill-opacity:1;stroke-width:0.999999"
         d="m 364.55859,820.89648 c -0.0634,0.0484 -0.11553,0.099 -0.16015,0.15235 0.0444,-0.0528 0.0973,-0.10438 0.16015,-0.15235 z"
         transform="scale(0.26458333)"
         id="path2612" />
      <path
         style="fill:#ffd73e;fill-opacity:1;stroke-width:0.999999"
         d="m 367.12109,820.26172 c -1.44721,0.14405 -2.18517,0.34696 -2.5625,0.63476 0.37715,-0.28765 1.11674,-0.49073 2.5625,-0.63476 z"
         transform="scale(0.26458333)"
         id="path2610" />
      <path
         style="fill:#ffd73e;fill-opacity:1;stroke-width:0.999999"
         d="m 371.0625,820.04297 c -0.84851,0.0262 -1.59152,0.0577 -2.24414,0.0938 0.65263,-0.0361 1.39759,-0.0656 2.24609,-0.0918 l 8.38477,0.2207 c 4.45973,0.1183 9.44911,0.11103 14.78125,-0.004 -5.33214,0.11493 -10.32349,0.12025 -14.7832,0.002 z"
         transform="scale(0.26458333)"
         id="path2608" />
      <path
         style="fill:#ffd73e;fill-opacity:1;stroke-width:0.999999"
         d="m 489.29297,820.03711 c -0.80532,0.33709 -1.59693,0.61568 -2.37305,0.83594 0.77612,-0.22026 1.56773,-0.49885 2.37305,-0.83594 z"
         transform="scale(0.26458333)"
         id="path2606" />
      <path
         style="fill:#ffd73e;fill-opacity:1;stroke-width:0.999999"
         d="m 416.54883,819.41211 c -1.7778,0.0754 -3.5981,0.13787 -5.48438,0.19141 -2.91446,0.15937 -5.78977,0.29599 -8.60351,0.40625 2.81374,-0.11026 5.69102,-0.24493 8.60547,-0.4043 1.88628,-0.0535 3.70462,-0.11794 5.48242,-0.19336 z"
         transform="scale(0.26458333)"
         id="path2604" />
      <path
         style="fill:#ffd73e;fill-opacity:1;stroke-width:0.999999"
         d="m 474.03125,818.22656 c 0.95741,0.80223 1.94915,1.45587 2.97656,1.96289 -1.02741,-0.50702 -2.01915,-1.16066 -2.97656,-1.96289 z"
         transform="scale(0.26458333)"
         id="path2602" />
      <path
         style="fill:#ffd73e;fill-opacity:1;stroke-width:0.999999"
         d="m 48.853516,817.2793 c 0.489164,0.50034 0.975332,0.97798 1.458984,1.43359 -0.483332,-0.45531 -0.970147,-0.93361 -1.458984,-1.43359 z"
         transform="scale(0.26458333)"
         id="path2600" />
      <path
         style="fill:#ffd73e;fill-opacity:1;stroke-width:0.999999"
         d="m 443.14844,817.18164 c -7.89576,0.94473 -14.493,1.56389 -21.36719,1.9668 6.8742,-0.40291 13.47144,-1.02207 21.36719,-1.9668 z"
         transform="scale(0.26458333)"
         id="path2598" />
      <path
         style="fill:#ffd73e;fill-opacity:1;stroke-width:0.999999"
         d="m 495.1875,815.97266 c -1.06755,0.96388 -2.09929,1.79563 -3.08594,2.47851 0.98665,-0.68288 2.01838,-1.51463 3.08594,-2.47851 z"
         transform="scale(0.26458333)"
         id="path2596" />
      <path
         style="fill:#ffd73e;fill-opacity:1;stroke-width:0.999999"
         d="m 469.64062,813.69922 -1.9082,0.24219 -11.57031,1.56445 c -2.39706,0.32444 -4.66334,0.62569 -6.82422,0.9043 2.16088,-0.27861 4.42912,-0.5779 6.82617,-0.90235 l 11.57032,-1.56445 1.9082,-0.24219 z"
         transform="scale(0.26458333)"
         id="path2594" />
      <path
         style="fill:#ffd73e;fill-opacity:1;stroke-width:0.999999"
         d="m 504.02734,806.08398 c -0.70154,0.91496 -1.40844,1.79803 -2.11718,2.64844 -0.57877,0.71384 -1.15456,1.40245 -1.72657,2.06446 0.57201,-0.66201 1.14975,-1.35062 1.72852,-2.06446 0.70906,-0.8508 1.41338,-1.73303 2.11523,-2.64844 z"
         transform="scale(0.26458333)"
         id="path2592" />
      <path
         style="fill:#ffd73e;fill-opacity:1;stroke-width:0.999999"
         d="m 541.88086,702.91992 c -0.63858,4.13347 -1.38815,8.36933 -2.24414,12.66797 0.85596,-4.29864 1.60559,-8.53451 2.24414,-12.66797 z"
         transform="scale(0.26458333)"
         id="path2590" />
      <path
         style="fill:#ffd73e;fill-opacity:1;stroke-width:0.999999"
         d="m 544.44141,668.79883 c 0.0797,0.59731 0.15103,1.06921 0.20507,1.24609 0.12709,0.4163 0.15167,1.57218 0.0918,3.25 0.0598,-1.67655 0.0372,-2.8339 -0.0898,-3.25 -0.0541,-0.17688 -0.12729,-0.64878 -0.20703,-1.24609 z"
         transform="scale(0.26458333)"
         id="path2588" />
      <path
         style="fill:#ffd73e;fill-opacity:1;stroke-width:0.999999"
         d="m 33.902344,660.94922 c 0.25501,0.31132 0.485248,0.58094 0.6875,0.80078 4.3e-4,-1.4e-4 0.0015,1.4e-4 0.002,0 -0.202257,-0.21984 -0.434442,-0.48946 -0.689453,-0.80078 z"
         transform="scale(0.26458333)"
         id="path2586" />
      <path
         style="fill:#ffd73e;fill-opacity:1;stroke-width:0.999999"
         d="m 543.33594,657.65234 c 0.17859,0.95934 0.3358,1.96188 0.47265,3.00586 -0.13687,-1.04394 -0.29404,-2.04656 -0.47265,-3.00586 z"
         transform="scale(0.26458333)"
         id="path2584" />
      <path
         style="fill:#ffd73e;fill-opacity:1;stroke-width:0.999999"
         d="m 30.255859,656.00586 c 0.313827,0.41839 0.6781,0.88378 0.90625,1.2207 0.667276,0.9854 1.323122,1.89533 1.91211,2.66992 -0.588986,-0.77459 -1.242877,-1.68452 -1.910157,-2.66992 -0.228359,-0.33723 -0.594015,-0.80185 -0.908203,-1.2207 z"
         transform="scale(0.26458333)"
         id="path2582" />
      <path
         style="fill:#ffd73e;fill-opacity:1;stroke-width:0.999999"
         d="m 540.61523,649.17383 c 0.38551,0.71485 0.74021,1.49991 1.06641,2.35156 -0.3262,-0.85165 -0.6809,-1.63671 -1.06641,-2.35156 z"
         transform="scale(0.26458333)"
         id="path2580" />
      <path
         style="fill:#ffd73e;fill-opacity:1;stroke-width:0.999999"
         d="m 538.67578,646.44531 c 0.47655,0.4951 0.92232,1.06545 1.33789,1.70899 -0.41557,-0.64354 -0.86134,-1.21389 -1.33789,-1.70899 z"
         transform="scale(0.26458333)"
         id="path2578" />
      <path
         style="fill:#ffd73e;fill-opacity:1;stroke-width:0.999999"
         d="m 456.2793,641.99219 c 0.21845,0.28646 0.43807,0.54146 0.65625,0.76758 -0.21814,-0.22616 -0.43783,-0.48108 -0.65625,-0.76758 z"
         transform="scale(0.26458333)"
         id="path2576" />
      <path
         style="fill:#ffd73e;fill-opacity:1;stroke-width:0.999999"
         d="m 17.175781,641.3457 c 0.715257,0.71423 1.500916,1.51342 2.373047,2.40625 0.281726,0.28842 0.578368,0.61863 0.865234,0.91797 0.504567,0.52222 1.01,1.05729 1.515626,1.60547 1.902614,2.04323 3.813649,4.19361 5.447265,6.12695 -1.633616,-1.93334 -3.542716,-4.08374 -5.445312,-6.12695 -0.505626,-0.54818 -1.011037,-1.08321 -1.515625,-1.60547 -0.28681,-0.29896 -0.583491,-0.62955 -0.865235,-0.91797 -0.872129,-0.89283 -1.659744,-1.69202 -2.375,-2.40625 z"
         transform="scale(0.26458333)"
         id="path2574" />
      <path
         style="fill:#ffd73e;fill-opacity:1;stroke-width:0.999999"
         d="m 534.01367,640.10938 c 0.0703,0.22238 0.11767,0.44474 0.13281,0.6621 -0.0152,-0.21785 -0.0623,-0.4392 -0.13281,-0.6621 z"
         transform="scale(0.26458333)"
         id="path2572" />
      <path
         style="fill:#ffd73e;fill-opacity:1;stroke-width:0.999999"
         d="m 65.267578,619.74414 c 0.267204,0.20388 0.517866,0.4251 0.757813,0.67188 -0.240249,-0.24719 -0.490238,-0.46772 -0.757813,-0.67188 z"
         transform="scale(0.26458333)"
         id="path2570" />
      <path
         style="fill:#ffd73e;fill-opacity:1;stroke-width:0.999999"
         d="m 31.369141,606.60547 c 9.60387,3.50073 19.010299,7.00605 25.433593,9.47265 -6.423288,-2.4666 -15.829719,-5.97192 -25.433593,-9.47265 z"
         transform="scale(0.26458333)"
         id="path2568" />
      <path
         style="fill:#ffd73e;fill-opacity:1;stroke-width:0.999999"
         d="m 4.8710938,596.875 c 1.4220992,0.59622 3.123629,1.26282 5.1562502,2.02344 -2.0326195,-0.76062 -3.7341511,-1.42722 -5.1562502,-2.02344 z"
         transform="scale(0.26458333)"
         id="path2566" />
      <path
         style="fill:#ffd73e;fill-opacity:1;stroke-width:0.999999"
         d="m 1.3984375,595.27148 c 0.9086532,0.48061 2.050557,1.0073 3.4726563,1.60352 -1.4220992,-0.59622 -2.5640024,-1.12291 -3.4726563,-1.60352 z"
         transform="scale(0.26458333)"
         id="path2564" />
      <path
         style="fill:#ffd73e;fill-opacity:1;stroke-width:0.999999"
         d="m 433.05078,593.94141 c 1.13433,2.82056 2.32347,5.66723 3.5957,8.55078 -1.27243,-2.88402 -2.46121,-5.72977 -3.5957,-8.55078 z"
         transform="scale(0.26458333)"
         id="path2562" />
      <path
         style="fill:#ffd73e;fill-opacity:1;stroke-width:0.999999"
         d="m -1.546875,593.32812 c 0.096882,0.0898 0.217973,0.18635 0.3632812,0.28907 -0.1446625,-0.10227 -0.2666151,-0.19957 -0.3632812,-0.28907 z"
         transform="scale(0.26458333)"
         id="path2560" />
      <path
         style="fill:#ffd73e;fill-opacity:1;stroke-width:0.999999"
         d="m 419.5625,526.24805 c -0.15062,0.21632 -0.28507,0.42293 -0.40234,0.62109 -0.17785,0.38833 -0.33063,0.78595 -0.45704,1.20508 0.12641,-0.41913 0.28112,-0.81675 0.45899,-1.20508 0.11727,-0.19816 0.24978,-0.40477 0.40039,-0.62109 z"
         transform="scale(0.26458333)"
         id="path2558" />
      <path
         style="fill:#ffd73e;fill-opacity:1;stroke-width:0.999999"
         d="m 429.18359,515.63477 c -1.11134,1.21334 -2.23784,2.42174 -3.31445,3.55468 -0.95474,1.00469 -1.79265,1.88739 -2.52734,2.67188 0.73469,-0.7845 1.57455,-1.66718 2.52929,-2.67188 1.07693,-1.13327 2.20085,-2.34098 3.3125,-3.55468 z"
         transform="scale(0.26458333)"
         id="path2556" />
      <path
         style="fill:#ffd73e;fill-opacity:1;stroke-width:0.999999"
         d="m 439.76367,503.12305 c -0.72848,0.9061 -1.6578,2.08719 -2.60742,3.32422 -0.47498,0.61876 -1.1483,1.44003 -1.95898,2.39648 0.81015,-0.95585 1.48618,-1.77803 1.96093,-2.39648 0.94997,-1.2375 1.87687,-2.418 2.60547,-3.32422 z"
         transform="scale(0.26458333)"
         id="path2552" />
      <path
         style="fill:#ffd73e;fill-opacity:1;stroke-width:0.999999"
         d="m 442.01172,500.55469 c -0.31864,0.38156 -0.59949,0.68314 -0.83594,0.89258 -0.15515,0.13757 -0.6835,0.76759 -1.41211,1.67382 0.72784,-0.90523 1.25902,-1.53634 1.41406,-1.67382 0.23645,-0.20944 0.51535,-0.51102 0.83399,-0.89258 z"
         transform="scale(0.26458333)"
         id="path2550" />
      <path
         style="fill:#ffd73e;fill-opacity:1;stroke-width:0.999999"
         d="m 444.33789,497.375 c -0.89766,1.33035 -1.68913,2.41685 -2.32617,3.17969 0.63727,-0.76312 1.4281,-1.84868 2.32617,-3.17969 z"
         transform="scale(0.26458333)"
         id="path2548" />
      <path
         style="fill:#ffd73e;fill-opacity:1;stroke-width:0.999999"
         d="m 23.189453,489.54688 c 1.312121,0.21345 2.322405,0.43157 2.990235,0.65429 -0.668194,-0.22284 -1.677075,-0.44072 -2.990235,-0.65429 z"
         transform="scale(0.26458333)"
         id="path2546" />
      <path
         style="fill:#ffd73e;fill-opacity:1;stroke-width:0.999999"
         d="m -4.4824219,487.41797 c 3.4652915,0.15439 6.2657848,0.31045 8.1464844,0.46289 -1.8807024,-0.15244 -4.6811914,-0.3085 -8.1464844,-0.46289 z"
         transform="scale(0.26458333)"
         id="path2544" />
      <path
         style="fill:#ffd73e;fill-opacity:1;stroke-width:0.999999"
         d="m -31.25,486.55078 c 10.241714,0.2559 19.836995,0.55841 26.7675781,0.86719 C -11.413008,487.10919 -21.008283,486.80668 -31.25,486.55078 Z"
         transform="scale(0.26458333)"
         id="path2542" />
      <path
         style="fill:#ffd73e;fill-opacity:1;stroke-width:0.999999"
         d="m -83.634766,485.90234 c -1.065496,0.0199 -1.976183,0.0453 -2.701172,0.0781 -2.292793,0.10395 -4.246451,0.21344 -5.929687,0.29297 1.683237,-0.0795 3.636893,-0.18706 5.929687,-0.29102 0.724989,-0.0329 1.635673,-0.0602 2.701172,-0.0801 z"
         transform="scale(0.26458333)"
         id="path2540" />
      <path
         style="fill:#ffd73e;fill-opacity:1;stroke-width:0.999999"
         d="m -80.011719,485.85938 c -1.337234,0.009 -2.557551,0.0231 -3.623047,0.043 1.0655,-0.0198 2.285814,-0.0323 3.623047,-0.041 5.261046,0.0745 10.941128,0.13874 17.121094,0.17578 5.519887,0.034 10.832582,0.0958 16.046875,0.16992 -5.214274,-0.0741 -10.526988,-0.13786 -16.046875,-0.17187 -6.179981,-0.037 -11.860029,-0.10133 -17.121094,-0.17578 z"
         transform="scale(0.26458333)"
         id="path2538" />
      <path
         style="fill:#ffd73e;fill-opacity:1;stroke-width:0.999999"
         d="m -102.82031,484.83008 c 0.14584,0.17056 0.26253,0.28695 0.34179,0.33594 0.0459,0.0302 0.24242,0.0572 0.50586,0.0859 0.17009,0.10282 0.34234,0.19659 0.52149,0.28321 -0.17915,-0.0866 -0.3514,-0.18234 -0.52149,-0.28516 -0.2632,-0.0287 -0.46012,-0.0595 -0.50586,-0.0859 -0.0793,-0.049 -0.19595,-0.16342 -0.34179,-0.33398 z"
         transform="scale(0.26458333)"
         id="path2536" />
      <path
         style="fill:#ffd73e;fill-opacity:1;stroke-width:0.999999"
         d="m -104.69922,482.56055 c 0.46189,0.62653 0.90718,1.15603 1.35938,1.60351 -0.45255,-0.44768 -0.89716,-0.97653 -1.35938,-1.60351 z"
         transform="scale(0.26458333)"
         id="path2534" />
      <path
         style="fill:#ffd73e;fill-opacity:1;stroke-width:0.999999"
         d="m 454.08984,481.14062 c -0.55026,0.97326 -1.11953,1.95324 -1.70507,2.9375 -1.15365,2.04714 -2.31227,4.05035 -3.43165,5.93165 1.11912,-1.8809 2.28024,-3.88503 3.4336,-5.93165 0.58553,-0.98426 1.15286,-1.96424 1.70312,-2.9375 z"
         transform="scale(0.26458333)"
         id="path2532" />
      <path
         style="fill:#ffd73e;fill-opacity:1;stroke-width:0.999999"
         d="m 457.17383,475.38086 c -0.95528,1.89131 -1.98346,3.81325 -3.08399,5.75976 1.10053,-1.94651 2.1287,-3.86845 3.08399,-5.75976 z"
         transform="scale(0.26458333)"
         id="path2530" />
      <path
         style="fill:#ffd73e;fill-opacity:1;stroke-width:0.999999"
         d="m 459.93945,469.76367 c -0.43593,0.90071 -0.90166,1.83965 -1.38867,2.80469 -0.44029,0.92906 -0.89931,1.86684 -1.37695,2.8125 0.47764,-0.94566 0.93861,-1.88344 1.3789,-2.8125 0.48702,-0.96504 0.95079,-1.90398 1.38672,-2.80469 z"
         transform="scale(0.26458333)"
         id="path2528" />
      <path
         style="fill:#ffd73e;fill-opacity:1;stroke-width:0.999999"
         d="m 462.16406,464.89062 c -0.59574,1.41947 -1.35275,3.07164 -2.22461,4.87305 0.87186,-1.80141 1.62887,-3.45358 2.22461,-4.87305 z"
         transform="scale(0.26458333)"
         id="path2526" />
      <path
         style="fill:#ffd73e;fill-opacity:1;stroke-width:0.999999"
         d="m 463.82617,460.1582 c -0.28741,0.99916 -0.58765,1.93522 -0.89648,2.78907 -0.2109,0.58309 -0.46775,1.23362 -0.76563,1.94335 0.29788,-0.70973 0.55668,-1.36027 0.76758,-1.94335 0.30884,-0.85385 0.60712,-1.78991 0.89453,-2.78907 z"
         transform="scale(0.26458333)"
         id="path2524" />
      <path
         style="fill:#ffd73e;fill-opacity:1;stroke-width:0.999999"
         d="m 466.98438,433.71289 c 0.0381,0.84566 0.0666,1.7046 0.0898,2.58203 0.0256,0.96772 0.019,2.00138 -0.0176,3.08594 0.0366,-1.08381 0.0451,-2.11884 0.0195,-3.08594 -0.0232,-0.87807 -0.0537,-1.73577 -0.0918,-2.58203 z"
         transform="scale(0.26458333)"
         id="path2522" />
      <path
         style="fill:#ffd73e;fill-opacity:1;stroke-width:0.999999"
         d="m 466.38086,426.24219 c 0.19125,1.58823 0.33983,3.17408 0.45117,4.79297 -0.11138,-1.61949 -0.25981,-3.20415 -0.45117,-4.79297 z"
         transform="scale(0.26458333)"
         id="path2520" />
      <path
         style="fill:#ffd73e;fill-opacity:1;stroke-width:0.999999"
         d="m 463.07812,410.36133 c 0.51252,1.82486 0.97187,3.56699 1.36719,5.22265 -0.39544,-1.65613 -0.85449,-3.39722 -1.36719,-5.22265 z"
         transform="scale(0.26458333)"
         id="path2512" />
      <path
         style="fill:#000000;fill-opacity:1;stroke-width:0.999999"
         d="m 83.769531,366.37695 c -0.150972,0.66968 -0.313327,1.17135 -0.488281,1.51172 0.174972,-0.34038 0.337319,-0.84205 0.488281,-1.51172 z"
         transform="scale(0.26458333)"
         id="path2504" />
      <path
         style="fill:#ffd73e;fill-opacity:1;stroke-width:0.999999"
         d="m -167.39062,353.12891 c 2.68463,6.8113 5.56063,13.85369 8.56835,20.99023 -3.00772,-7.13654 -5.88372,-14.17893 -8.56835,-20.99023 z"
         transform="scale(0.26458333)"
         id="path2500" />
      <path
         style="fill:#000000;fill-opacity:1;stroke-width:0.999999"
         d="m 436.54492,318.97852 c 0.49352,2.18965 0.99526,4.50295 1.51563,6.96875 0.6963,3.29943 1.34601,6.32731 1.96679,9.15039 -0.62078,-2.82308 -1.26854,-5.85096 -1.96484,-9.15039 -0.52037,-2.4658 -1.02406,-4.7791 -1.51758,-6.96875 z"
         transform="scale(0.26458333)"
         id="path2492" />
      <path
         style="fill:#ffd73e;fill-opacity:1;stroke-width:0.999999"
         d="m 43.003906,281.00195 c 6.333622,2.52936 12.609415,5.00503 18.375,7.20899 -5.765155,-2.2038 -12.041871,-4.67983 -18.375,-7.20899 z"
         transform="scale(0.26458333)"
         id="path2486" />
      <path
         style="fill:#000000;fill-opacity:1;stroke-width:0.999999"
         d="m 419.375,266.97461 c 0.052,0.94048 0.11418,1.76416 0.1875,2.48828 l 4.84766,11.48438 -4.84571,-11.48438 c -0.0733,-0.72412 -0.13743,-1.54779 -0.18945,-2.48828 z"
         transform="scale(0.26458333)"
         id="path2484" />
      <path
         style="fill:#ffd73e;fill-opacity:1;stroke-width:0.999999"
         d="m 418.87305,239.42383 c 0.18519,5.63274 0.28906,11.07734 0.28906,16.01953 0,-4.94217 -0.10387,-10.38677 -0.28906,-16.01953 z"
         transform="scale(0.26458333)"
         id="path2482" />
      <path
         style="fill:#ffd73e;fill-opacity:1;stroke-width:0.999999"
         d="m 326.11719,210.29883 c 0.20814,0.85834 0.41314,1.62595 0.61719,2.29883 0.0164,0.0541 0.0216,0.0944 0.0351,0.14453 -0.0113,-0.0506 -0.0181,-0.0897 -0.0332,-0.14453 -0.20389,-0.67235 -0.41117,-1.44132 -0.61914,-2.29883 z"
         transform="scale(0.26458333)"
         id="path2480" />
      <path
         style="fill:#ffd73e;fill-opacity:1;stroke-width:0.999999"
         d="m -117.36133,196.36328 c 2.06493,1.50632 4.36405,3.15725 6.86914,4.91992 -2.50464,-1.76235 -4.80446,-3.41381 -6.86914,-4.91992 z"
         transform="scale(0.26458333)"
         id="path2478" />
      <path
         style="fill:#ffd73e;fill-opacity:1;stroke-width:0.999999"
         d="m 403.19922,120.30469 c 1.03971,4.26851 2.00734,8.40403 2.92578,12.46484 -0.91831,-4.06019 -1.88624,-8.19701 -2.92578,-12.46484 z"
         transform="scale(0.26458333)"
         id="path2476" />
      <path
         style="fill:#ffd73e;fill-opacity:1;stroke-width:0.999999"
         d="m 322.26562,186.03906 c 1.28805,10.69969 2.60286,19.10763 3.85157,24.25782 -1.24883,-5.15004 -2.56338,-13.55696 -3.85157,-24.25782 z"
         transform="scale(0.26458333)"
         id="path2474" />
      <path
         style="fill:#ffd73e;fill-opacity:1;stroke-width:0.999999"
         d="m 319.1543,155.06836 c 0.98302,11.54345 2.03784,22.05332 3.11132,30.9707 -1.07349,-8.91738 -2.12831,-19.42724 -3.11132,-30.9707 z"
         transform="scale(0.26458333)"
         id="path2472" />
      <path
         style="fill:#ffd73e;fill-opacity:1;stroke-width:0.999999"
         d="m 315.68359,103.80469 c 0.19614,3.76615 0.40223,7.50968 0.61914,11.22265 0.13403,2.70266 0.2753,5.19843 0.42383,7.41993 0.0702,1.05068 0.15808,2.1542 0.23242,3.21875 0.66683,10.27207 1.4089,20.16758 2.19532,29.40234 -0.78642,-9.23477 -1.52654,-19.13027 -2.19336,-29.40234 -0.0745,-1.06455 -0.16213,-2.16808 -0.23242,-3.21875 -0.14865,-2.22154 -0.28966,-4.71726 -0.42383,-7.41993 -0.21689,-3.71232 -0.425,-7.45717 -0.6211,-11.22265 z"
         transform="scale(0.26458333)"
         id="path2470" />
      <path
         style="fill:#ffd73e;fill-opacity:1;stroke-width:0.999999"
         d="m 397.55859,99.367188 c 0.88717,3.010392 1.73636,6.022062 2.5586,9.033202 -0.82203,-3.01051 -1.67166,-6.02344 -2.5586,-9.033202 z"
         transform="scale(0.26458333)"
         id="path2468" />
      <path
         style="fill:#ffd73e;fill-opacity:1;stroke-width:0.999999"
         d="m 394.73828,90.154297 c 0.96978,3.064926 1.91399,6.137494 2.82031,9.212891 -0.90642,-3.075913 -1.8504,-6.147456 -2.82031,-9.212891 z"
         transform="scale(0.26458333)"
         id="path2466" />
      <path
         style="fill:#ffd73e;fill-opacity:1;stroke-width:0.999999"
         d="m 387.24023,68.230469 c 1.72303,4.679051 3.3795,9.406906 4.97071,14.162109 -1.59101,-4.754733 -3.2479,-9.483519 -4.97071,-14.162109 z"
         transform="scale(0.26458333)"
         id="path2464" />
      <path
         style="fill:#ffd73e;fill-opacity:1;stroke-width:0.999999"
         d="m 375.15625,38.449219 c 2.13266,4.786077 4.21274,9.676849 6.23047,14.648437 -2.0177,-4.971603 -4.09784,-9.86235 -6.23047,-14.648437 z"
         transform="scale(0.26458333)"
         id="path2460" />
      <path
         style="fill:#ffd73e;fill-opacity:1;stroke-width:0.999999"
         d="m 370.82422,29.023438 c 1.46487,3.090348 2.91026,6.235063 4.33203,9.425781 -1.42175,-3.190725 -2.86718,-6.335428 -4.33203,-9.425781 z"
         transform="scale(0.26458333)"
         id="path2458" />
      <path
         style="fill:#ffd73e;fill-opacity:1;stroke-width:0.999999"
         d="m 366.37305,19.921875 c 1.50157,2.975643 2.9863,6.011214 4.45117,9.101563 -1.46485,-3.090354 -2.94961,-6.125916 -4.45117,-9.101563 z"
         transform="scale(0.26458333)"
         id="path2456" />
      <path
         style="fill:#ffd73e;fill-opacity:1;stroke-width:0.999999"
         d="m 352.49414,-5.0195312 c 1.5729,2.5448078 3.138,5.17257433 4.69336,7.875 -1.55538,-2.70240302 -3.12045,-5.3302221 -4.69336,-7.875 z"
         transform="scale(0.26458333)"
         id="path2454" />
      <path
         style="fill:#ffd73e;fill-opacity:1;stroke-width:0.999999"
         d="m 345.375,-15.894531 c 2.38156,3.423093 4.75713,7.0547795 7.11719,10.8730466 -2.35958,-3.8174206 -4.73611,-7.4506466 -7.11719,-10.8730466 z"
         transform="scale(0.26458333)"
         id="path2452" />
      <path
         style="fill:#ffd73e;fill-opacity:1;stroke-width:0.999999"
         d="m 336.37695,-27.771484 c 0.59936,0.715931 1.21473,1.469865 1.84766,2.261718 0.79384,0.993179 1.58817,2.010433 2.38281,3.054688 -0.79408,-1.04348 -1.58758,-2.062212 -2.38086,-3.054688 -0.63292,-0.791855 -1.25025,-1.545786 -1.84961,-2.261718 z"
         transform="scale(0.26458333)"
         id="path2450" />
      <path
         style="fill:#ffd73e;fill-opacity:1;stroke-width:0.999999"
         d="m 331.41602,-33.203125 c 1.51278,1.47623 3.16287,3.283846 4.96093,5.431641 -1.79849,-2.148306 -3.44786,-3.95522 -4.96093,-5.431641 z"
         transform="scale(0.26458333)"
         id="path2448" />
      <path
         style="fill:#ffd73e;fill-opacity:1;stroke-width:0.999999"
         d="m 314.43359,59.742188 c 0.156,13.678368 0.3896,25.840399 0.69727,32.705078 0.17039,3.801856 0.35664,7.589954 0.55273,11.355464 -0.19612,-3.76614 -0.38032,-7.552957 -0.55078,-11.355464 -0.30767,-6.86469 -0.54321,-19.026705 -0.69922,-32.705078 z"
         transform="scale(0.26458333)"
         id="path2446" />
      <path
         style="fill:#ffd73e;fill-opacity:1;stroke-width:0.999999"
         d="m 314.34375,-1.1367188 c -0.0778,5.3133947 -0.12158,12.0591528 -0.13281,19.5058598 -0.0792,8.525941 -0.046,17.711659 0.0918,27.330078 0.0342,4.756788 0.0789,9.483512 0.13086,14.042969 -0.052,-4.559458 -0.0947,-9.286179 -0.1289,-14.042969 -0.13796,-9.618406 -0.17079,-18.804145 -0.0918,-27.330078 0.0112,-7.446709 0.053,-14.1924676 0.13086,-19.5058598 z"
         transform="scale(0.26458333)"
         id="path2444" />
      <path
         style="fill:#ffd73e;fill-opacity:1;stroke-width:0.999999"
         d="m 314.58008,-10.369141 c -0.0996,2.0672062 -0.17798,5.2473763 -0.23633,9.2324222 0.0584,-3.985044 0.13671,-7.1652148 0.23633,-9.2324222 z"
         transform="scale(0.26458333)"
         id="path2442" />
      <path
         style="fill:#ffd73e;fill-opacity:1;stroke-width:0.999999"
         d="m 320.27734,-37.15625 c -2.24132,2.028367 -3.4438,5.671784 -4.57812,15.140625 -0.01,0.08991 -0.0214,0.167578 -0.0312,0.261719 -0.32455,2.741078 -0.64509,5.884601 -0.98242,9.701172 -0.038,0.430397 -0.0723,0.994525 -0.10547,1.683593 0.0332,-0.689069 0.0694,-1.253195 0.10742,-1.683593 0.33736,-3.816567 0.65776,-6.960108 0.98242,-9.701172 0.0113,-0.09411 0.0199,-0.171766 0.0312,-0.261719 1.13431,-9.468813 2.33679,-13.112266 4.57813,-15.140625 -3.9e-4,3.51e-4 -0.002,-3.52e-4 -0.002,0 z"
         transform="scale(0.26458333)"
         id="path2389" />
      <g
         id="g2739"
         transform="translate(-2.9603646e-6,-0.53453907)">
        <path
           d="m 85.239757,12.818335 0.002,2.01435 c 5.3e-4,0.47848 0.01,1.07174 0.0227,1.71308 l 0.0408,1.53737 c 0.18777,6.61853 0.78023,17.920735 1.11828,20.534146 0.0565,0.436571 0.17947,1.805779 0.27337,3.042709 0.22426,2.95393 1.35041,11.724867 1.71359,13.345437 0.4325,1.929929 0.63243,2.145295 2.57297,2.770373 1.73628,0.5593 3.12001,1.22705 3.85712,1.782321 0.236,0.15953 0.39069,0.297696 0.43409,0.403076 0.27819,0.350671 0.1771,0.612349 -0.4253,0.698149 -0.31694,0.0451 -1.20992,-0.109054 -1.98438,-0.342615 -2.24029,-0.67565 -8.90332,-1.956178 -11.34452,-2.180227 -0.39443,-0.0362 -0.81739,-0.06625 -1.25316,-0.09405 -1.63131,-0.072 -3.51216,-0.08675 -6.00893,-0.08475 -1.57488,0.0016 -2.97204,0.02302 -4.30103,0.05891 -3.04414,0.131861 -6.02472,0.37134 -8.39846,0.705901 -7.40697,1.04394 -9.77682,1.546539 -15.21354,3.226159 -1.30556,0.403331 -2.20217,0.670965 -2.78949,0.891935 -0.16105,0.06397 -0.308,0.125317 -0.43563,0.182419 -0.86061,0.419759 -0.43648,0.738619 0.51883,1.748729 0.0525,0.05557 0.0955,0.10423 0.14573,0.158131 0.28549,0.276979 0.53662,0.562192 0.75086,0.844391 0.77806,0.93512 1.06201,1.525596 0.88004,1.820045 -0.31108,0.50336 -0.98541,0.246372 -2.33525,-0.889867 -4.02123,-3.38455 -15.06086,-9.314749 -23.7231,-12.743408 -10.7670798,-4.261792 -21.8800798,-7.35186 -33.3375,-9.269719 -3.07823,-0.51526 -3.12143,-0.666258 -3.27215,1.312582 -0.0206,0.716568 -0.0351,1.555239 -0.0351,2.491319 0,0.979001 0.007,1.739416 0.0269,2.378668 0.29392,2.828438 1.13,5.465797 2.4753,7.730275 l 0.53743,0.905373 c 0.33327,0.466741 0.64789,0.816771 0.90899,0.980302 0.17703,0.110869 0.6139,0.346917 1.16117,0.636135 l 5.6952602,2.838588 c 3.99945,1.993429 7.33312994,3.624585 7.40832994,3.624585 0.0752,0 1.06818006,0.432729 2.20659006,0.961697 7.7691898,3.61002 22.7674998,9.10894 26.8898298,9.85883 1.65009,0.30017 1.9745,0.416896 2.0252,0.911056 0.004,0.01799 0.0103,0.03604 0.0103,0.05374 0,0.0154 -0.004,0.02944 -0.005,0.04444 0.002,0.0312 0.005,0.05788 0.005,0.09198 0,0.343749 -0.19684,0.527423 -0.59531,0.555522 -0.21745,0.01532 -0.52741,0.01949 -0.87436,0.0155 -0.3416,0.01298 -0.74164,2.6e-4 -1.19941,-0.03824 -0.6807,-0.03348 -1.31436,-0.08436 -1.6645,-0.14056 -0.17168,-0.0095 -0.31043,-0.01375 -0.42685,-0.01447 -0.50053,0.252198 -0.96915,1.92024 -1.69447,5.896279 -0.61898,3.39303 -1.01649,7.412723 -1.15807,11.205001 -0.0117,2.21102 0.0444,4.877888 0.17105,8.158158 0.0221,0.21782 0.0432,0.43889 0.0687,0.64596 0.10915,0.88807 0.32749,4.53894 0.48524,8.11319 0.45775,10.37149 1.03829,14.29393 2.77399,18.73581 0.73931,1.89199 1.60828,3.61566 2.62878,5.19814 0.96539,1.47517 2.07357,2.84303 3.33468,4.11137 0.94582,0.95124 2.00783,1.8679 3.13469,2.72387 1.52586,1.13032 3.22577,2.17062 5.12528,3.14141 1.13872,0.58197 2.75312,1.26929 3.58737,1.52703 0.78853,0.24365 1.2993,0.49853 1.50637,0.74466 0.0964,0.10497 0.14263,0.21276 0.14263,0.33538 0,0.045 -0.008,0.0859 -0.0196,0.12506 -0.0456,0.66073 -0.97676,0.66038 -3.41995,0.0568 -4.26185,-1.05281 -10.2033,-5.09232 -13.39246,-9.10591 l -1.05937,-1.33273 c -0.10516,-0.0726 -0.19388,-0.0978 -0.26768,-0.0625 l -0.15348,0.9989 c -0.10375,0.67618 -0.31074,2.30095 -0.45992,3.61064 -0.54792,4.8107 -4.16647,17.68427 -6.72465,23.92412 -0.28164,0.68698 -0.52299,1.32743 -0.63252,1.66708 -0.0252,0.10312 -0.0417,0.19145 -0.0517,0.26665 0.0617,0.12044 0.53512,0.32719 1.11208,0.47904 2.12246,0.55865 4.97872,2.11519 6.1774,3.3662 1.18879,1.24068 1.44868,1.95562 0.94309,2.02882 -0.29533,0.12854 -0.84798,-0.0275 -1.4211,-0.44132 -0.26518,-0.13382 -0.55785,-0.2961 -0.88108,-0.49247 -1.68794,-1.02546 -2.67637,-1.52542 -3.87987,-1.89343 -0.0725,-0.0222 -0.14579,-0.0418 -0.21859,-0.063 -0.36432,-0.10459 -0.74745,-0.20112 -1.18287,-0.29662 -3.7322,-0.81869 -6.9263,-0.27883 -9.11004,1.48053 -0.17742,0.15973 -0.36143,0.33117 -0.56483,0.5302 -0.16056,0.1571 -0.31271,0.31494 -0.45888,0.47129 -0.15311,0.18195 -0.29919,0.3718 -0.43667,0.57051 -0.45091,0.65173 -0.63473,0.93571 -0.62063,1.20406 0.0436,0.13745 0.11385,0.30939 0.20205,0.50074 0.025,0.0415 0.0468,0.0793 0.076,0.12609 1.08832,1.74425 2.31829,4.32547 3.05201,6.40529 1.08214,3.06745 1.18181,4.21939 0.36638,4.21939 -0.33364,0 -0.72239,-0.51151 -1.25677,-1.65365 -1.30989,-2.79963 -3.10269,-6.14009 -4.6338198,-8.76226 -1.32687,-2.22809 -2.53807,-4.06841 -2.95486,-4.39559 -0.0737,-0.0431 -0.12266,-0.0368 -0.13746,0.0362 -0.0622,0.3065 0.62036,3.1342 1.43919,6.01203 0.22455,0.65945 0.33514,1.11167 0.32814,1.41542 0.006,0.24166 -0.0608,0.3913 -0.2067,0.5333 -0.27543,0.26809 -0.5026,0.14564 -1.17874,-0.63459 -1.37998,-1.59242 -2.82205,-6.22814 -2.82205,-9.07231 0,-0.49239 -0.0687,-0.88685 -0.19792,-1.16737 -0.0524,-0.1059 -0.10835,-0.19361 -0.16795,-0.25321 -0.11225,-0.11225 -0.1945,-0.18454 -0.2558,-0.20464 -0.0426,0.0172 -0.0821,0.0494 -0.11731,0.0966 -0.0349,0.11152 -0.0456,0.36851 -0.0496,0.7183 0.014,0.28508 0.0388,0.64278 0.0754,1.12034 0.17274,2.25429 0.61406,4.29935 1.54461,7.15874 0.29762,0.91468 0.47403,1.83741 0.39223,2.05052 -0.41183,1.0732 -1.80781,-0.26199 -2.7760601,-2.65513 -0.50282996,-1.24281 -0.53623996,-1.27251 -0.54983996,-0.48938 -0.0402,2.3235 1.36063006,8.76221 3.33003006,15.30552 3.20341,10.64342 8.4699098,20.35922 12.0597298,22.24878 0.41703,0.2195 0.60304,0.29524 0.78703,0.16639 0.0559,-0.0518 0.11965,-0.12107 0.18965,-0.19947 0.0631,-0.0825 0.13084,-0.17918 0.21394,-0.30592 0.40402,-0.61582 0.48326,-1.47763 0.55656,-6.06733 0.0641,-4.01169 0.16907,-5.3812 0.42064,-5.4777 0.88014,-0.33774 1.48679,1.08564 1.73685,3.94136 0.19446,1.41703 0.28856,3.08204 0.22686,4.73821 l -0.0832,2.21744 0.10387,0.0631 0.81649,0.34416 c 2.01673,0.84963 2.7922,1.03102 6.93342,1.07022 0.9445,0.005 1.86228,0.01 3.25303,0.0109 5.57093,-0.009 11.27804,-0.2417 12.84315,-0.5302 0.22406,-0.0413 1.73582,-0.16086 3.36,-0.26614 2.40564,-0.15592 2.9721,-0.27151 3.05459,-0.62166 0.11654,-0.49437 -0.089,-0.87398 -3.3817,-6.25027 -8.7122,-14.22486 -14.26525,-26.00734 -16.21038,-34.39583 -0.32386,-1.39671 -0.5403,-2.7739 -0.64492,-3.94756 -0.10081,-0.79487 -0.15892,-1.48629 -0.16692,-2.01745 -0.0359,-0.50552 -0.0198,-0.7847 0.0661,-0.91571 0.032,-0.12651 0.0747,-0.21426 0.13022,-0.24856 0.0819,-0.0509 0.1736,-0.0669 0.2682,-0.0589 0.0246,-0.0154 0.0499,-0.0281 0.077,-0.0331 0.28991,-0.0577 0.47549,0.11204 0.5979,0.54312 0.0839,0.14854 0.13901,0.3147 0.13901,0.48627 0,0.0213 0.0106,0.0786 0.0186,0.1261 0.84493,3.38464 3.18266,10.96175 4.12998,13.34182 0.92533,2.32483 2.71999,6.4661 3.78065,8.78137 0.28613,0.58813 0.57664,1.17962 0.88057,1.78129 0.18611,0.30531 0.74823,1.35033 1.3596,2.53421 0.67633,1.30968 1.44319,2.73843 1.70429,3.175 0.2611,0.43656 0.86868,1.50812 1.34979,2.38125 0.48113,0.87312 1.07897,1.88516 1.3286,2.24896 0.24963,0.36381 0.75348,1.19723 1.11983,1.85208 0.36635,0.65484 1.81201,3.05041 3.21272,5.32371 1.36438,2.21437 2.18725,3.7268 2.44792,4.48551 0.0577,0.14351 0.0987,0.26156 0.0987,0.31626 0,0.0116 -0.004,0.0305 -0.005,0.0439 0.002,0.0162 0.005,0.0348 0.005,0.0491 -1.1e-4,0.41884 -0.35211,1.50586 -0.78238,2.41536 -0.36693,0.77563 -0.61395,1.42516 -0.61495,1.5999 0.11226,-0.0114 0.34701,-0.0961 0.63303,-0.21911 0.21766,-0.11108 0.46462,-0.24253 0.72554,-0.3917 0.92599,-0.52938 1.54203,-0.73618 2.0097,-0.60668 0.3151,0.0588 0.54082,0.28069 0.75861,0.66921 0.0399,0.0663 0.0794,0.13658 0.11833,0.21239 l 0.12248,0.23822 c 0.12494,0.23618 0.21937,0.40611 0.28887,0.51935 0.0934,0.0271 0.19748,0.0139 0.31936,-0.0388 l 0.83871,-0.71882 c 0.22168,-0.18975 0.44891,-0.35659 0.66559,-0.50436 0.009,-0.006 0.0168,-0.0116 0.0258,-0.0176 0.12543,-0.0847 0.2489,-0.16731 0.3576,-0.22841 0.15866,-0.10665 0.29013,-0.18345 0.34313,-0.18345 0.0112,0 0.0282,0.008 0.0439,0.0139 0.0262,-0.006 0.0536,-0.0134 0.0734,-0.0134 0.11919,0 0.29933,0.11261 0.49092,0.29042 0.21854,0.15814 0.42876,0.41713 0.64544,0.78393 0.0483,0.0818 0.0995,0.15679 0.15038,0.23099 0.23867,0.31108 0.46171,0.53206 0.56121,0.54105 0.0797,-0.0146 0.29275,-0.12679 0.58807,-0.30644 0.29767,-0.19126 0.67544,-0.45516 1.06092,-0.7462 0.66082,-0.49893 1.39033,-0.9177 1.76889,-1.02785 0.0237,-0.009 0.0409,-0.0126 0.0589,-0.0176 0.0122,-0.004 0.0286,-0.0134 0.0346,-0.0134 v 5.2e-4 c 0.001,0 0.005,0.003 0.006,0.003 0.003,0 0.009,-0.003 0.0124,-0.003 0.004,0 0.0121,0.004 0.017,0.005 0.009,-0.001 0.0235,-0.005 0.0315,-0.005 0.32793,0 0.83851,0.45132 1.34824,1.19218 0.69091,1.00421 0.97609,1.26235 1.71876,0.62941 0.0786,-0.0724 0.15949,-0.14777 0.24649,-0.23047 0.2409,-0.23247 0.5153,-0.52048 0.86559,-0.90537 0.61324,-0.67384 1.09865,-1.05212 1.63762,-1.17564 0.0544,-0.0244 0.0999,-0.0393 0.13074,-0.0393 0.0113,0 0.0391,0.007 0.0532,0.008 0.49405,-0.0598 1.04642,0.079 1.78749,0.3886 0.29989,0.1253 0.57967,0.23251 0.78703,0.30541 0.12699,0.0149 0.23331,0.0166 0.29921,-0.008 -0.0518,-0.16546 -0.23246,-0.53855 -0.47956,-0.99735 -0.22372,-0.29529 -0.39776,-0.59091 -0.53227,-0.92708 l -0.29817,-0.4501 -0.003,-0.10749 -0.26148,-0.46147 -0.0667,-5.29166 c -0.091,-7.22838 -0.95881,-16.40838 -2.52284,-26.73171 -0.5339,-3.23139 -1.13324,-6.44792 -1.79369,-9.58029 -0.22608,-0.99689 -0.48014,-2.09786 -0.79633,-3.44733 -0.26044,-1.11152 -0.45537,-1.99234 -0.60203,-2.71198 -0.20986,-0.86639 -0.33316,-1.43386 -0.35916,-1.77509 0,-0.001 2e-5,-0.002 0,-0.002 0,-10e-4 -0.001,-0.004 -0.001,-0.004 -0.0694,-0.30016 -0.0466,-0.47268 0.0765,-0.54828 0.0112,-0.0353 0.0243,-0.0651 0.0419,-0.0827 0.33427,-0.33427 0.64217,-0.18161 1.13895,0.68213 0.22509,0.34824 0.46032,0.81588 0.70383,1.39784 0.002,0.004 0.004,0.007 0.006,0.0114 1.0165,2.20008 1.83951,5.20785 2.7311,9.98286 0.32606,1.74625 0.68548,3.27827 0.79892,3.40496 0.11344,0.1267 0.28357,-0.34956 0.37827,-1.05834 0.21535,-1.61163 1.86998,-7.03412 2.55799,-8.38295 0.30603,-0.59999 0.59349,-0.90587 0.86454,-0.92397 0.20701,-0.11033 0.39036,-0.0427 0.54674,0.21032 0.016,0.0258 0.006,0.16453 -0.015,0.35037 -2e-4,0.11458 -0.0113,0.25475 -0.03,0.41392 -0.0361,0.72087 -0.27019,1.9425 -0.72657,4.00131 -2.61184,11.78276 -2.68315,12.40562 -2.01745,17.63303 0.70504,5.53624 1.33424,14.21561 1.3348,18.41025 5.3e-4,3.12463 0.0523,3.47299 0.71727,4.82864 0.48225,0.98329 0.75331,1.39786 1.09503,1.41336 0.13014,-0.0425 0.31097,-0.11308 0.51366,-0.19948 0.0652,-0.0431 0.1297,-0.0852 0.20361,-0.14107 0.3417,-0.25846 0.64342,-0.3924 0.94361,-0.39274 l 0.27853,-0.13281 0.0212,-0.0119 10e-4,0.001 0.002,-5.2e-4 0.28784,0.31781 c 0.3709,0.21385 0.77434,0.62698 1.27589,1.26918 0.32335,0.414 0.63736,0.7839 0.88367,1.04954 0.22295,0.2016 0.39489,0.31942 0.52503,0.35192 0.0766,-0.11544 0.13178,-0.41082 0.13178,-0.75758 0,-1.06359 0.43091,-1.83451 1.02474,-1.83451 0.2621,0 1.29921,0.53321 2.30529,1.18494 1.00608,0.65173 1.894,1.18763 1.973,1.19062 0.079,0.003 0.13829,-0.61938 0.13229,-1.38337 -5.3e-4,-0.0493 1.3e-4,-0.0869 0,-0.13281 -0.007,-0.14928 -0.004,-0.28575 0.006,-0.41393 0.0204,-0.62434 0.1115,-0.81705 0.39635,-0.89245 0.0868,-0.0531 0.1857,-0.0822 0.29766,-0.0822 0.0234,0 0.0606,0.0231 0.10387,0.0584 0.27559,0.0565 0.48641,0.30107 0.73639,0.82786 0.28137,0.59295 0.72743,1.0164 1.27021,1.20561 0.33617,0.1172 0.64986,0.1915 0.81958,0.2005 0.008,-7.9e-4 0.0204,-1.3e-4 0.0274,-0.001 0.0558,-0.0344 0.0821,-0.0943 0.0811,-0.185 -0.0574,-0.21832 -0.22246,-0.61716 -0.44648,-1.05627 -0.51982,-1.01893 -0.53349,-1.1553 -0.15245,-1.53634 0.38103,-0.38104 0.50897,-0.32948 1.44178,0.58136 0.54183,0.52909 0.864,0.78205 1.2299,0.88005 h 5.1e-4 c 0.051,0.0136 0.10473,0.0209 0.15813,0.0289 0.0272,0.004 0.053,0.01 0.0811,0.0129 0.001,6e-5 0.001,-7e-5 0.002,0 0.15051,0.0134 0.31564,0.01 0.50695,-0.007 l 0.94671,-0.0837 -0.0289,-0.046 -0.32763,-0.42891 -0.67231,-0.81132 c -0.34403,-0.41529 -0.64781,-0.8668 -0.84284,-1.23042 -0.0263,-0.045 -0.0491,-0.0898 -0.0687,-0.13384 -0.095,-0.19463 -0.15348,-0.3569 -0.15348,-0.4563 0,-0.009 0.005,-0.0297 0.007,-0.0419 -0.001,-0.0125 -0.007,-0.0298 -0.007,-0.0403 0,-0.2509 0.28471,-0.93599 0.82992,-2.0159 0.65025,-1.4267 1.49429,-3.11003 1.81953,-3.52691 1.06518,-1.3653 6.369543,-11.89309 7.931813,-15.74271 3.90061,-9.61149 5.49672,-17.04916 6.47247,-30.1625 0.14288,-1.92025 0.25082,-3.21383 0.3607,-4.11861 0.0576,-0.64679 0.11486,-1.06281 0.21136,-1.23714 0.18599,-0.63238 0.42508,-0.51956 0.83819,-0.10645 0.6522,0.65219 0.76076,6.96006 0.20774,12.08453 -1.13894,10.55375 -3.41885,18.91181 -8.1902,29.03802 -0.63183,1.40831 -1.18305,2.57837 -1.48672,3.10111 -0.0497,0.0856 -0.1708,0.30767 -0.2496,0.44855 -1.038743,2.05101 -2.174313,4.18366 -3.422013,6.43061 -1.4141,2.54661 -2.60111,4.77917 -2.87321,5.39502 -0.0189,0.0432 -0.0189,0.0534 -0.0289,0.0801 -0.0148,0.0471 -0.0178,0.073 -0.0238,0.10542 0.0178,0.1557 0.18721,0.48625 0.39429,0.76016 0.30711,0.4062 1.83617,0.6626 4.12843,0.7829 1.07509,0.0152 2.447633,0.0207 4.312903,0.0207 1.26489,0 2.51877,-0.0155 3.73673,-0.0382 3.88087,-0.15017 8.25723,-0.4735 12.49949,-0.95911 1.44578,-0.17702 2.6946,-0.33715 3.43028,-0.44959 0.7678,-0.15186 1.00647,-0.36032 1.1095,-0.94568 0.002,-0.0353 0.006,-0.0687 0.006,-0.10438 0,-0.18513 0.0265,-0.35678 0.0713,-0.51108 0.0652,-0.48508 0.178,-0.6454 0.50075,-0.6842 0.15061,-0.0713 0.3155,-0.0738 0.47387,0.0145 0.32579,0.069 0.47947,0.30266 0.64234,0.89969 0.34984,1.28232 1.34928,2.74342 2.05052,3.06596 0.0489,0.0199 0.0979,0.0372 0.14676,0.0517 0.0154,0.003 0.032,0.0104 0.047,0.0124 10e-4,1.7e-4 7.5e-4,-1.7e-4 0.002,0 0.93967,0.13309 2.40415,-1.01067 4.04161,-3.15692 5.13688,-6.733 9.37254,-19.81007 10.11153,-31.01619 0.013,-0.32015 0.0277,-0.63025 0.0377,-0.97152 l 0.0987,-3.35328 c -0.001,-0.0633 -0.005,-0.099 -0.007,-0.15245 -0.0152,-0.077 -0.0298,-0.14774 -0.0424,-0.20774 l -0.32246,1.76475 c -0.21623,1.70985 -0.59264,3.31691 -1.01389,4.48397 -0.17878,0.53934 -0.35892,0.93972 -0.54674,1.21388 -0.23426,0.39099 -0.46726,0.6165 -0.68109,0.6165 -0.0937,0 -0.1626,-0.0393 -0.21549,-0.12868 -0.15576,-0.002 -0.24337,-0.0526 -0.26097,-0.38137 -0.0313,-0.28586 0.003,-0.78112 0.0801,-1.67277 0.0566,-0.65272 0.11696,-1.2805 0.17156,-1.81125 0.0648,-0.89912 0.14833,-1.8113 0.23203,-2.4412 0.30054,-2.26078 0.34229,-7.04096 0.0693,-7.18406 -0.0993,-0.003 -0.22221,0.0742 -0.35089,0.21136 -0.30078,0.42928 -0.50866,1.49618 -0.632,3.23184 -0.22464,3.16094 -0.82877,6.23406 -1.49603,8.06721 -0.0562,0.15763 -0.11355,0.30453 -0.17105,0.44339 -0.001,0.002 -0.001,0.004 -0.002,0.006 -0.32633,0.7861 -0.66953,1.26245 -0.98753,1.26245 -0.001,0 -0.002,1e-5 -0.002,0 -0.25078,-2.6e-4 -0.41104,-0.0693 -0.49144,-0.29611 -0.1518,-0.38629 -0.0753,-1.22194 0.1943,-2.90628 0.21885,-1.36744 0.46635,-3.61725 0.55035,-4.99969 l 0.14005,-2.30167 c -0.061,0.0511 -0.13281,0.13134 -0.21601,0.24391 l -0.83561,1.66089 c -2.58797,5.14688 -5.43263,13.11675 -7.13031,19.97604 -0.82754,3.34355 -1.0178,3.83645 -1.47898,3.83645 -0.005,0 -0.008,-0.001 -0.0134,-0.001 -0.003,5e-5 -0.007,0.001 -0.01,0.001 -0.11595,0 -0.20563,-0.0203 -0.27853,-0.0687 -0.0188,-0.0127 -0.0363,-0.0277 -0.0527,-0.045 -0.0779,-0.0803 -0.13122,-0.21748 -0.17002,-0.42994 -0.1251,-0.38321 -0.1495,-0.99573 -0.0925,-1.77561 0.0604,-2.89518 1.23039,-7.35535 3.58738,-13.67358 l 1.05317,-2.8236 c 0.0552,-0.3742 -0.17152,-0.68657 -0.96636,-1.56063 l -1.84536,-1.76475 c -3.35609,-3.20877 -5.83552,-4.66716 -8.45323,-4.83123 -0.16695,-0.004 -0.34061,-0.007 -0.53589,-0.008 -0.24364,-7.9e-4 -0.4941,0.01 -0.74775,0.0279 -0.3241,0.0294 -0.65133,0.0705 -0.98599,0.13488 -1.78453,0.34338 -4.2313,1.33452 -4.98936,2.02055 -0.41726,0.37764 -0.50391,0.41211 -0.77515,0.0641 -0.10084,-0.0412 -0.15915,-0.12541 -0.17414,-0.2434 -0.26606,-0.40938 -0.11754,-0.61519 1.08417,-1.76992 0.0472,-0.0453 0.0941,-0.0834 0.14107,-0.12712 0.0108,-0.01 0.0196,-0.0189 0.0305,-0.0289 0.0107,-0.01 0.0228,-0.0184 0.0336,-0.0284 1.32245,-1.20804 2.63277,-1.79432 4.83382,-2.16318 0.54569,-0.0915 0.99218,-0.28617 0.99218,-0.43253 0,-0.14636 -0.87237,-1.95677 -1.9389,-4.02301 -4.17345,-8.08542 -6.34896,-14.48721 -7.07605,-20.82198 -0.17538,-1.52798 -0.39179,-2.86049 -0.48059,-2.96107 -0.0888,-0.10057 -1.17378,0.65463 -2.41071,1.67846 -1.23693,1.02382 -2.72695,2.17775 -3.31142,2.56418 -0.58447,0.38644 -1.5039,1.04178 -2.04329,1.45624 -1.593033,1.22406 -5.831893,3.46449 -7.862563,4.15582 -1.57601,0.53656 -1.92374,0.58147 -2.11511,0.27182 -0.0483,-0.0782 -0.0763,-0.16717 -0.0956,-0.25787 -0.0684,-0.10918 -0.0986,-0.21452 -0.0594,-0.27802 0.005,-0.008 0.0267,-0.0261 0.0439,-0.0413 0.0328,-0.27234 0.17346,-0.50281 0.38137,-0.50281 0.27091,0 5.01573,-2.82211 7.25693,-4.31601 3.696983,-2.46428 8.152583,-6.10011 11.317643,-9.17205 0.93505,-0.95232 1.86567,-1.93912 2.71921,-2.88562 1.33068,-1.56429 3.03416,-3.74815 4.02612,-5.13818 0.25844,-0.38237 0.50525,-0.75507 0.73587,-1.11053 0.0267,-0.0502 0.0515,-0.0981 0.063,-0.13023 0.0783,-0.21925 0.35747,-0.70997 0.62064,-1.09037 l 0.42064,-0.60823 c 0.0146,-0.0305 0.0298,-0.0614 0.0398,-0.0853 l -1.28571,-0.15245 c -1.89249,-0.22414 -4.09966,-1.40609 -5.46891,-2.92902 -1.84394,-2.05091 -2.72077,-4.52265 -2.74247,-7.71891 -0.001,-0.0659 -0.002,-0.13182 -0.002,-0.19792 7e-5,-0.0154 -5.1e-4,-0.0301 -5.1e-4,-0.0455 0,-0.0518 0.002,-0.10166 0.003,-0.15296 0.001,-0.0867 0.002,-0.17335 0.005,-0.26045 0.073,-2.50853 0.65753,-4.43019 1.81074,-5.95674 0.21959,-0.3091 0.46026,-0.60056 0.71985,-0.87644 0.006,-0.006 0.0111,-0.0131 0.017,-0.0191 0.0227,-0.024 0.0452,-0.0481 0.0682,-0.0718 1.70257,-1.85312 3.5849,-2.66201 6.18101,-2.70061 0.77383,-0.0115 1.41036,-0.0853 1.50276,-0.16898 0.007,-0.0144 0.01,-0.0298 0.0119,-0.0455 -0.0179,-0.13567 -0.31442,-0.98988 -0.68161,-1.95905 -1.84335,-4.865538 -3.18967,-9.447121 -4.0721,-13.856 -0.75,-3.747212 -1.72376,-7.625609 -2.55747,-10.186459 -0.90488,-2.779471 -3.01487,-7.261304 -4.18527,-8.890415 -0.51271,-0.71365 -0.93225,-1.357402 -0.93225,-1.430403 0,-0.073 -0.65484,-0.986134 -1.45521,-2.029333 -0.95458,-1.244201 -1.4152,-2.017435 -1.4242,-2.442745 -0.0441,-0.279519 0.0796,-0.420645 0.37517,-0.420645 0.0146,0 0.0302,0.0024 0.045,0.0031 0.0116,-0.0011 0.0214,-0.0031 0.0336,-0.0031 0.006,0 0.0189,0.0042 0.0269,0.0062 0.0412,-0.003 0.0823,-0.0062 0.12868,-0.0062 0.45846,0 1.17271,0.578895 2.52491,2.046385 l 1.88567,2.046388 -0.0362,-3.22926 -0.0687,-2.452047 c -0.02,-0.713661 -0.0487,-1.427552 -0.0796,-2.141472 -0.36022,-6.642211 -1.3567,-15.161238 -2.51458,-21.158398 -0.0647,-0.329621 -0.13092,-0.658479 -0.19792,-0.98702 -0.76887,-3.691509 -2.64389,-10.692171 -3.96978,-14.792371 -1.43205,-4.42848 -1.44663,-4.44954 -4.558893,-6.55619 -3.52059,-2.38305 -6.46619,-3.46744 -10.22728,-3.76515 l -0.9524,-0.0754 z m 16.387103,69.740967 h 5.2e-4 c 3.24869,0.03867 6.34826,2.005671 7.91218,5.368663 0.97841,2.10393 0.96902,5.323933 -0.0217,7.440374 -0.83906,1.792478 -2.55207,3.489984 -4.29844,4.260205 -1.62865,0.718296 -4.38691,0.917736 -5.733493,0.414446 -2.75187,-1.02919 -4.59138,-2.693633 -5.73815,-5.191932 -0.9092,-1.980761 -0.94592,-5.073518 -0.0837,-7.002158 0.929,-2.077998 2.24124,-3.470164 4.16409,-4.416785 1.23369,-0.607346 2.527603,-0.887833 3.798723,-0.872813 z m -146.429293,0.717785 c -0.43832,0.007 -0.69826,0.03841 -0.73329,0.09818 -0.13609,0.232431 0.81055,2.913967 3.16053,8.950359 1.42676,3.664908 2.30521,5.748636 5.24103,12.435414 2.13811,4.8699 6.82477,14.37849 8.21913,16.67547 0.6479,1.0673 1.17771,2.01028 1.17771,2.09548 0,0.0138 0.0289,0.0688 0.0506,0.1142 0.30166,0.51355 0.55256,0.92843 0.75138,1.24179 0.0613,0.0941 0.11781,0.18372 0.18241,0.28112 l 0.47336,0.71365 0.43253,0.63769 2.23346,0.0289 1.6893,-0.0796 c 4.00544,-0.18907 18.0403202,0.20163 26.4387002,0.73587 0.31178,0.0199 0.48811,0.0353 0.76326,0.0538 3.09483,0.15755 3.94403,0.24601 4.24883,0.56482 0.0598,0.0418 0.10368,0.0867 0.13488,0.13643 0.21407,0.34069 -0.0408,1.49398 -1.08107,4.89479 -2.66714,8.71921 -5.73289,19.43313 -6.40581,22.29993 -0.0975,0.46255 -0.12537,0.70788 -0.0977,0.78548 0.15641,0.0991 1.24758,0.51477 2.53473,0.96273 8.2874598,2.88427 13.2513798,4.79211 14.3639798,5.52111 0.0555,0.0363 0.11575,0.0931 0.17725,0.15813 l 0.34416,0.16072 0.21756,0.69039 c 0.11591,0.2292 0.22191,0.47362 0.30231,0.71572 0.2435,0.73311 0.52252,1.33326 0.62012,1.33326 0.0976,0 0.62488,-1.27994 1.1715,-2.84427 0.9877,-2.82666 1.86351,-5.89519 1.72289,-6.03581 -0.0404,-0.0404 -2.32901,-1.15806 -5.08547,-2.48357 -2.75647,-1.3255 -5.06277,-2.46138 -5.12527,-2.52388 -0.34576,-0.34575 -0.004,-1.55304 0.7953,-2.80861 0.49998,-0.78543 0.98949,-1.60641 1.08779,-1.8247 0.19853,-0.44094 1.9553,-2.96227 4.95163,-7.10603 1.08972,-1.507 2.15987,-2.99853 2.37815,-3.31504 0.21828,-0.31651 0.9693,-1.37024 1.66863,-2.34146 l 0.97462,-1.35392 c 0.16635,-0.27357 0.25555,-0.44945 0.26355,-0.52555 l -0.49093,-1.68413 c -1.061,-3.64055 -1.83557,-8.92443 -1.87327,-12.77803 -0.0107,-1.09141 -0.13676,-4.06798 -0.28008,-6.61459 -0.14333,-2.54662 -0.3388,-6.09649 -0.4346,-7.88841 l -0.16175,-3.02823 -0.015,-0.231 -1.50481,-0.75964 c -0.8289,-0.418431 -2.98301,-1.374429 -4.78731,-2.124419 -14.5016499,-6.027899 -27.8561,-9.806358 -43.36531,-12.270568 -5.02386,-0.798222 -13.64408,-1.613247 -16.8336,-1.662949 -0.18401,-0.0029 -0.34998,-0.0033 -0.49609,-0.001 z m 94.26246,2.167308 h 5.2e-4 c 0.17714,-0.004 0.35434,-7.83e-4 0.53123,0.0062 1.52055,0.02151 2.13669,0.163846 3.29437,0.706417 1.2763,0.59818 2.44094,1.566698 3.3445,2.752288 0.32927,0.412729 0.59419,0.819235 0.80616,1.246433 0.0805,0.148151 0.15869,0.297932 0.23099,0.450104 0.58227,1.22478 0.69006,1.811325 0.68006,3.704167 -0.01,1.926569 -0.12072,2.470883 -0.77153,3.797184 -0.87301,1.779129 -2.56093,3.399892 -4.48396,4.305682 -1.88754,0.88906 -5.25622,0.88906 -7.14375,0 -2.33068,-1.0978 -4.02701,-3.020874 -4.83071,-5.227073 -0.095,-0.231931 -0.16279,-0.446336 -0.21239,-0.661977 -0.40015,-1.448249 -0.42306,-2.991106 0.004,-4.486029 0.78742,-2.755532 2.35959,-4.639751 4.90719,-5.881811 1.20049,-0.58529 1.78386,-0.703485 3.57756,-0.708486 0.0218,0 0.0437,-0.0027 0.0656,-0.0031 z m 33.16077,11.064441 h 5.1e-4 c 0.99892,0.03411 1.56063,0.335267 1.56063,0.866098 0,0.63936 -0.73891,1.893779 -1.38027,2.34301 -0.22577,0.158139 -0.42336,0.260209 -0.62115,0.317806 -0.0295,0.0107 -0.0602,0.0188 -0.0899,0.0258 -0.0205,0.004 -0.0414,0.008 -0.062,0.0114 -0.0397,0.006 -0.0811,0.0106 -0.12299,0.0103 -0.35374,0.0198 -0.74483,-0.107452 -1.32189,-0.395321 -0.45104,-0.225002 -1.02071,-0.748901 -1.26607,-1.16427 -0.27423,-0.46378 -0.36633,-0.654873 -0.26923,-0.861965 0.003,-0.0122 0.004,-0.02572 0.008,-0.03721 0.0489,-0.12733 0.15751,-0.246684 0.31471,-0.355534 0.003,-0.004 0.005,-0.0058 0.009,-0.0098 0.3285,-0.328491 1.07404,-0.574845 2.10065,-0.694016 0.42544,-0.0493 0.80701,-0.06773 1.13998,-0.05633 z m -0.27234,7.007844 h 5.2e-4 c 0.30061,0.002 0.58572,0.0408 0.88005,0.10697 0.58199,0.13076 3.02865,1.14624 5.43688,2.25671 2.52608,1.16481 4.05378,1.80356 5.25084,2.04173 0.68518,0.0795 1.36694,0.082 2.0128,0.002 0.46966,-0.1 0.95437,-0.26368 1.51722,-0.48886 2.01655,-0.80675 1.98073,-0.80164 2.16937,-0.31006 0.21257,0.55396 -0.76796,1.66794 -2.03243,2.30891 -0.71978,0.36484 -1.06758,0.55085 -1.26762,0.92552 -0.10058,0.27504 -0.18824,0.6277 -0.26304,1.07952 -0.0259,0.20269 -0.052,0.4285 -0.0811,0.69609 -0.2436,2.24187 -1.01233,5.43771 -2.39572,9.95598 -2.17923,7.11754 -5.12229,13.0371 -8.05739,16.20728 -2.91956,3.15338 -5.73331,4.04476 -8.90953,2.82308 -0.28601,-0.11001 -0.57172,-0.24724 -0.8568,-0.39791 -0.27994,-0.12948 -0.52808,-0.27531 -0.79168,-0.46664 -5.55323,-3.66147 -10.69485,-14.65872 -12.21476,-26.63248 -0.12436,-0.97972 -0.25411,-1.6381 -0.40772,-2.04225 -0.006,-0.0158 -0.0126,-0.0289 -0.0186,-0.0439 -0.0257,-0.0634 -0.0514,-0.12373 -0.0786,-0.17363 -0.005,-0.01 -0.011,-0.0163 -0.016,-0.0253 -0.0625,-0.1081 -0.12848,-0.18501 -0.19998,-0.22841 -0.17974,-0.10913 -0.60077,-0.44466 -1.04387,-0.82631 h -5.1e-4 c -0.14774,-0.12725 -0.29787,-0.25974 -0.44235,-0.39067 -0.7351,-0.66614 -0.98216,-1.0562 -0.87954,-1.38648 10e-4,-0.009 0.004,-0.0174 0.006,-0.0264 10e-4,-0.002 10e-4,-0.004 0.002,-0.006 2.2e-4,-0.001 2.6e-4,-0.002 5.2e-4,-0.002 0.008,-0.0385 0.0232,-0.0732 0.0439,-0.10439 0.0679,-0.15799 0.14151,-0.2465 0.35967,-0.23099 0.10701,0.004 0.25162,0.0372 0.44028,0.0961 0.002,5.3e-4 0.002,5.1e-4 0.004,10e-4 0.0358,0.0113 0.0779,0.0255 0.1173,0.0388 0.40762,0.1295 1.00208,0.35204 1.93115,0.7028 1.32951,0.50194 2.2996,0.67903 3.72432,0.67903 2.32812,0 3.45477,-0.42143 9.36016,-3.49953 0.1822,-0.095 0.32746,-0.16732 0.49971,-0.25632 0.23254,-0.12038 0.46466,-0.24133 0.69091,-0.3545 2.94901,-1.50001 4.35437,-2.03766 5.50922,-2.02882 z m -44.51924,6.50916 c 1.89906,-7.9e-4 3.82786,0.60746 5.49889,1.66708 1.15132,0.67538 2.13054,1.57266 2.9099,2.67167 0.42964,0.57064 0.80146,1.18572 1.10226,1.83865 0.38011,0.82508 0.55687,1.34009 0.64027,2.20503 0.28332,1.35214 0.2903,2.7156 0.0527,4.02353 -0.0536,1.2066 -0.24141,1.66098 -0.86145,2.89647 -1.69812,3.38377 -4.74078,5.41264 -8.76329,5.84357 -0.65484,0.0701 -1.72641,0.0214 -2.38125,-0.10801 -1.25396,-0.24778 -2.39105,-0.65311 -3.40496,-1.20354 -0.36917,-0.16703 -0.66084,-0.31588 -0.77618,-0.40618 -0.13629,-0.10668 -0.27517,-0.22669 -0.41393,-0.34726 -1.36323,-1.00372 -2.43835,-2.3285 -3.19567,-3.94395 -0.01,-0.0195 -0.0236,-0.0412 -0.0326,-0.0605 -0.29187,-0.60515 -0.46807,-1.03483 -0.5793,-1.526 -0.13761,-0.44286 -0.25626,-0.90202 -0.35346,-1.37873 -0.25278,-1.23961 -0.25878,-1.96185 -0.0269,-3.11661 0.96316,-4.79591 4.13749,-7.9515 8.95191,-8.89868 0.53712,-0.10568 1.08384,-0.15636 1.63298,-0.15658 z"
           style="fill:#ffd73e;fill-opacity:1;stroke-width:0.264583"
           id="path2462" />
        <path
           transform="scale(0.26458333)"
           d="m 445.9043,406.20898 c -3.63984,-0.0422 -7.89393,0.69581 -11.23828,2.16211 -5.8153,2.54975 -11.07232,8.32522 -13.53907,14.8711 -2.70119,7.16814 -2.47134,18.68137 0.32422,26.73437 0.54565,1.43868 1.15272,2.80959 1.81641,4.11133 2.89243,5.26639 7.85627,10.4421 12.39844,12.79297 3.52686,1.82544 11.34845,2.04842 14.91406,0.42383 4.6583,-2.12247 9.20344,-21.32819 8.1543,-34.45899 -0.87686,-10.97386 -3.94913,-23.47322 -6.16797,-25.0957 -1.3708,-1.00233 -3.83113,-1.507 -6.66211,-1.54102 z m -302.7168,17.125 c -1.67086,6.5e-4 -3.33446,0.15493 -4.96875,0.47657 -14.64878,2.88196 -24.30768,12.48372 -27.23828,27.07617 -0.70562,3.51356 -0.6871,5.71064 0.082,9.48242 0.29575,1.45051 0.65551,2.84787 1.07422,4.19531 0.33844,1.4945 0.87563,2.80326 1.76367,4.64453 0.0274,0.0586 0.0686,0.12426 0.0977,0.1836 2.30428,4.91527 5.57672,8.94599 9.72461,12 0.4222,0.36688 0.84508,0.73198 1.25976,1.05664 0.35094,0.27477 1.23806,0.72809 2.36133,1.23633 3.08501,1.67478 6.54396,2.9082 10.35937,3.66211 1.99247,0.39382 5.25362,0.54166 7.2461,0.32812 12.23923,-1.31115 21.49721,-7.48356 26.66406,-17.7793 1.88658,-3.75923 2.45801,-5.14317 2.6211,-8.81445 0.72289,-3.97965 0.70189,-8.12806 -0.16016,-12.24219 -0.25376,-2.63172 -0.79264,-4.19851 -1.94922,-6.70898 -0.91524,-1.98663 -2.04625,-3.85751 -3.35352,-5.59375 -2.37134,-3.34394 -5.35041,-6.07394 -8.85351,-8.12891 -5.08443,-3.22409 -10.95222,-5.07464 -16.73047,-5.07226 z"
           style="fill:#ee4e36;fill-opacity:1;stroke-width:0.999999"
           id="path2510" />
        <path
           transform="scale(0.26458333)"
           d="m 378.36719,321.45117 c -5.70258,-0.008 -11.17276,5.5918 -11.19922,11.45313 4e-5,0.062 0.002,0.1114 0.002,0.17187 0.0409,2.33817 1.20762,5.20037 2.83985,7.39453 0.045,0.0563 0.0921,0.11046 0.13671,0.16602 0.28147,0.29469 0.56597,0.59136 0.90235,0.92773 0.62657,0.62661 1.24427,1.16899 1.85742,1.64453 3.2801,1.8522 9.0544,1.52 12.33008,-0.8125 4.08434,-2.9083 5.58616,-8.44402 3.58789,-13.22656 -1.66005,-3.97311 -6.72694,-7.71119 -10.45703,-7.71875 z M 188.4668,331.48242 c -0.30913,0.003 -0.60805,0.0241 -0.90625,0.043 -8.24436,0.85497 -12.71388,9.05969 -8.98828,16.59766 0.98604,1.78053 2.40597,3.40831 4.00781,4.64062 3.96722,2.58331 9.36654,2.34565 13.49804,-1.10351 2.80116,-2.33851 3.41965,-3.62368 3.8379,-7.97657 0.068,-0.70503 0.11637,-1.29965 0.15039,-1.84375 -0.15855,-1.75128 -0.52112,-3.29097 -1.09961,-4.60156 -0.49085,-0.64241 -1.15208,-1.34341 -2.07618,-2.26758 -1.43726,-1.43724 -2.47525,-2.30094 -3.58398,-2.81836 -1.40394,-0.45713 -3.01206,-0.68882 -4.83984,-0.66992 z"
           style="fill:#ffffff;fill-opacity:1;stroke-width:0.999999"
           id="path2498" />
        <path
           id="path2720"
           d="m 78.864771,116.78246 c -4.384301,0.0416 -8.259658,2.6156 -11.875504,6.48436 2.161753,7.02141 5.333958,12.67332 8.671317,15.10037 0.238991,0.19133 0.463965,0.33716 0.717769,0.46664 0.258463,0.15067 0.517493,0.2879 0.7768,0.39791 2.879685,1.22168 5.430726,0.3303 8.077704,-2.82309 2.273054,-2.70793 4.549656,-7.4259 6.397133,-13.17903 -4.747986,-4.6041 -8.948973,-6.4834 -12.765219,-6.44716 z"
           style="fill:#ee7277;fill-opacity:1;stroke-width:0.251929" />
      </g>
    </g>
  </g>
</svg>
